<svg xmlns="http://www.w3.org/2000/svg" viewBox="0 0 133.03 105.12"><defs><style>.cls-1{fill:#fff;}</style></defs><title>アセット 23</title><g id="レイヤー_2" data-name="レイヤー 2"><g id="レイヤー_1-2" data-name="レイヤー 1"><path class="cls-1" d="M82.64,69.08l.17.77a28.79,28.79,0,0,0-6,3.4,19.19,19.19,0,0,0-3.71,3.64,12.48,12.48,0,0,0-1.93,3.66,13.88,13.88,0,0,0-.62,3.57,15.71,15.71,0,0,0,.2,3.27c.17,1,.35,2,.55,2.86a14.83,14.83,0,0,0,2.45,5.88,11,11,0,0,0,3.68,3.18,10.53,10.53,0,0,0,4.16,1.16,14.41,14.41,0,0,0,3.81-.24,9.24,9.24,0,0,0,4-1.84,10.33,10.33,0,0,0,2.49-3,13.25,13.25,0,0,0,1.34-3.49,21.65,21.65,0,0,0,.51-3.39l.71-8.63a21.22,21.22,0,0,1,2.76-9.63,10.64,10.64,0,0,1,7.11-4.6,15.64,15.64,0,0,1,6.12-.16,14.21,14.21,0,0,1,5.37,2.15A15.18,15.18,0,0,1,120,71.89a16.85,16.85,0,0,1,2.48,6,17.31,17.31,0,0,1,.48,4.21,18.36,18.36,0,0,1-.33,3c-.18.88-.34,1.66-.48,2.36a4.75,4.75,0,0,0,0,2,2.28,2.28,0,0,0,.52,1.18,4.62,4.62,0,0,0,1.42.61l.21,1-12.73,2.77-.18-.85a21.58,21.58,0,0,0,4.57-2.5,15.63,15.63,0,0,0,3.58-3.54,12.63,12.63,0,0,0,2-4.54,12.41,12.41,0,0,0-.06-5.55,17.9,17.9,0,0,0-1.27-3.62A11.9,11.9,0,0,0,117.84,71a9.67,9.67,0,0,0-3.59-2.28,8.68,8.68,0,0,0-4.89-.15,7.71,7.71,0,0,0-3.64,1.75,9.18,9.18,0,0,0-2.16,2.94,15.07,15.07,0,0,0-1.13,3.63c-.23,1.31-.4,2.61-.51,3.91l-.82,9.09c-.09,1-.22,2.16-.39,3.63A15.32,15.32,0,0,1,99.46,98a12.54,12.54,0,0,1-3,4.12,11.77,11.77,0,0,1-5.61,2.66,16.86,16.86,0,0,1-6.56.14,16.06,16.06,0,0,1-6-2.41,17.91,17.91,0,0,1-4.88-4.83,19.64,19.64,0,0,1-3-7.16c-.21-1-.39-1.86-.53-2.61a20.18,20.18,0,0,1-.28-2.15q-.08-1-.12-2c0-.68,0-1.45.06-2.29.08-1,.18-2.08.32-3.25a8.77,8.77,0,0,0,0-2.93A1.92,1.92,0,0,0,69,73.85a3.79,3.79,0,0,0-1.27-.43l-.23-1Z"/><path class="cls-1" d="M12.59,55.3l0,.55A20.35,20.35,0,0,0,7.84,57a13.36,13.36,0,0,0-3.23,1.73,9.08,9.08,0,0,0-2,2.1A9.89,9.89,0,0,0,1.46,63.1a11.63,11.63,0,0,0-.52,2.26c-.08.72-.14,1.41-.19,2a10.29,10.29,0,0,0,.51,4.46,7.64,7.64,0,0,0,1.86,2.88,7.3,7.3,0,0,0,2.59,1.61A9.91,9.91,0,0,0,8.34,77a6.59,6.59,0,0,0,3.09-.45A7.31,7.31,0,0,0,13.69,75a9.25,9.25,0,0,0,1.6-2.11,14.56,14.56,0,0,0,1-2.19L18.49,65a14.84,14.84,0,0,1,3.78-6A7.48,7.48,0,0,1,28,57.28a10.82,10.82,0,0,1,4.17,1.11,9.93,9.93,0,0,1,3.21,2.51,10.72,10.72,0,0,1,2,3.68,12.28,12.28,0,0,1,.5,4.54,12.52,12.52,0,0,1-.51,2.94,14.07,14.07,0,0,1-.83,2c-.29.55-.56,1.05-.79,1.5a3.43,3.43,0,0,0-.4,1.37,1.64,1.64,0,0,0,.11.9,3.38,3.38,0,0,0,.85.69l0,.71-9.18-.63.05-.61a15.17,15.17,0,0,0,3.59-.8,10.66,10.66,0,0,0,3.12-1.69,8.94,8.94,0,0,0,2.28-2.67,8.8,8.8,0,0,0,1-3.77A12.28,12.28,0,0,0,37,66.36a8.52,8.52,0,0,0-1-2.81,6.79,6.79,0,0,0-2-2.26,6.17,6.17,0,0,0-3.28-1.06,5.47,5.47,0,0,0-2.81.46,6.41,6.41,0,0,0-2,1.57,9.79,9.79,0,0,0-1.48,2.24A27.21,27.21,0,0,0,23.34,67L21,73c-.24.63-.57,1.42-1,2.38a10.79,10.79,0,0,1-1.71,2.75,8.84,8.84,0,0,1-2.86,2.2,8.28,8.28,0,0,1-4.32.69,11.88,11.88,0,0,1-4.48-1.2A11.4,11.4,0,0,1,3,77,12.66,12.66,0,0,1,.66,72.8,13.87,13.87,0,0,1,0,67.36c0-.71.1-1.34.16-1.87A13.15,13.15,0,0,1,.43,64c.1-.47.21-.93.33-1.4A12.78,12.78,0,0,1,1.25,61c.25-.67.53-1.38.86-2.13a6.47,6.47,0,0,0,.54-2,1.37,1.37,0,0,0-.23-1.06,2.67,2.67,0,0,0-.78-.54l.06-.76Z"/><path class="cls-1" d="M109,32.73l.49-.26a20.73,20.73,0,0,0,3.45,3.41,13.48,13.48,0,0,0,3.18,1.82,8.7,8.7,0,0,0,2.86.61,9.57,9.57,0,0,0,2.54-.26,11.39,11.39,0,0,0,2.18-.75c.66-.32,1.27-.62,1.84-.92a10.55,10.55,0,0,0,3.53-2.79,7.76,7.76,0,0,0,1.45-3.11,7.41,7.41,0,0,0,0-3,10.29,10.29,0,0,0-.89-2.55,6.5,6.5,0,0,0-2-2.38,7.14,7.14,0,0,0-2.49-1.12,9.39,9.39,0,0,0-2.63-.25,16.37,16.37,0,0,0-2.4.3l-6,1.17a15.1,15.1,0,0,1-7.06,0,7.53,7.53,0,0,1-4.49-3.95,11.17,11.17,0,0,1-1.27-4.13,9.83,9.83,0,0,1,.44-4.05,10.53,10.53,0,0,1,2.07-3.63A12,12,0,0,1,107.35,4a11.9,11.9,0,0,1,4.9-1.48l1.69-.12A3.55,3.55,0,0,0,115.32,2a1.54,1.54,0,0,0,.7-.57,3.48,3.48,0,0,0,.15-1.09L116.8,0l4.31,8.12-.54.29A14.93,14.93,0,0,0,118,5.78,10.94,10.94,0,0,0,114.91,4a9.14,9.14,0,0,0-3.47-.52,9,9,0,0,0-3.76,1.11,12.32,12.32,0,0,0-2.22,1.55,8.36,8.36,0,0,0-1.89,2.3,6.86,6.86,0,0,0-.86,2.87,6.23,6.23,0,0,0,.83,3.36,5.49,5.49,0,0,0,1.88,2.13,6.43,6.43,0,0,0,2.41.91,10.38,10.38,0,0,0,2.68.07c.93-.09,1.85-.22,2.76-.4l6.33-1.17c.66-.13,1.51-.27,2.54-.43a11.05,11.05,0,0,1,3.25,0,8.76,8.76,0,0,1,3.37,1.26,8.38,8.38,0,0,1,2.87,3.3A11.79,11.79,0,0,1,133,24.8a11.44,11.44,0,0,1-.48,4.57,12.61,12.61,0,0,1-2.35,4.23,13.92,13.92,0,0,1-4.29,3.4c-.63.34-1.19.62-1.68.86a12.53,12.53,0,0,1-1.4.6c-.45.17-.91.32-1.36.47a14.88,14.88,0,0,1-1.57.4c-.7.14-1.45.27-2.27.4a6.46,6.46,0,0,0-2,.59c-.45.24-.71.49-.78.76a2.83,2.83,0,0,0,0,.94l-.67.36Z"/></g></g></svg>