<svg xmlns="http://www.w3.org/2000/svg" viewBox="0 0 204.24 44.88"><title>アセット 17</title><g id="レイヤー_2" data-name="レイヤー 2"><g id="レイヤー_1-2" data-name="レイヤー 1"><path d="M30,43.29a23,23,0,0,1-8.37,1.59A22.21,22.21,0,0,1,12.9,43.2,20.35,20.35,0,0,1,1.59,31.44a24.9,24.9,0,0,1-1.59-9,24.9,24.9,0,0,1,1.59-9A20.77,20.77,0,0,1,6.06,6.33a20.56,20.56,0,0,1,6.87-4.65A22.27,22.27,0,0,1,21.66,0a22.6,22.6,0,0,1,7.71,1.35,16.38,16.38,0,0,1,6.39,4.11l-.84,1a14.56,14.56,0,0,0-2.85-2.31,18.7,18.7,0,0,0-3.36-1.65,19.27,19.27,0,0,0-3.57-1,21.17,21.17,0,0,0-3.48-.3,20.41,20.41,0,0,0-8.31,1.65A19.17,19.17,0,0,0,6.93,7.38a20.54,20.54,0,0,0-4.14,6.75,23.21,23.21,0,0,0-1.47,8.31,23.64,23.64,0,0,0,1.44,8.31A20.14,20.14,0,0,0,6.87,37.5,19.17,19.17,0,0,0,13.29,42a20.57,20.57,0,0,0,8.37,1.65,21.14,21.14,0,0,0,7.83-1.53,15.5,15.5,0,0,0,6.39-4.59l1,.9A16.39,16.39,0,0,1,30,43.29Z"/><path d="M71.7,29.82a16.26,16.26,0,0,1-1,5.94,13.25,13.25,0,0,1-7.56,7.68,15.46,15.46,0,0,1-5.85,1.08,15.23,15.23,0,0,1-5.82-1.08,13.31,13.31,0,0,1-7.53-7.68,16.26,16.26,0,0,1-1-5.94,16,16,0,0,1,1-5.91,13.27,13.27,0,0,1,3-4.59,13.71,13.71,0,0,1,4.56-3,15.23,15.23,0,0,1,5.82-1.08,15.46,15.46,0,0,1,5.85,1.08,13.64,13.64,0,0,1,4.59,3,13.27,13.27,0,0,1,3,4.59A16,16,0,0,1,71.7,29.82Zm-1.32,0a15.07,15.07,0,0,0-.9-5.22,12.49,12.49,0,0,0-2.61-4.29,12.22,12.22,0,0,0-4.14-2.88,13.71,13.71,0,0,0-5.49-1.05,13.5,13.5,0,0,0-5.46,1.05,12.3,12.3,0,0,0-4.11,2.88,12.49,12.49,0,0,0-2.61,4.29,15.07,15.07,0,0,0-.9,5.22,15.25,15.25,0,0,0,.9,5.28,12.49,12.49,0,0,0,2.61,4.29,12.67,12.67,0,0,0,4.11,2.91,13.17,13.17,0,0,0,5.46,1.08,13.38,13.38,0,0,0,5.49-1.08,12.34,12.34,0,0,0,6.75-7.2A15.25,15.25,0,0,0,70.38,29.82Z"/><path d="M84.84,19.92a12.46,12.46,0,0,1,2.58-2.55,11,11,0,0,1,3.12-1.59A11.3,11.3,0,0,1,94,15.24a10.15,10.15,0,0,1,4.8,1,8.36,8.36,0,0,1,3.06,2.7,11,11,0,0,1,1.62,3.78A19.06,19.06,0,0,1,104,27V43.68h-1.32V27.12a19.59,19.59,0,0,0-.36-3.6A9.8,9.8,0,0,0,101,20a8.33,8.33,0,0,0-2.67-2.61A7.91,7.91,0,0,0,94,16.38,10,10,0,0,0,86.25,20a13.25,13.25,0,0,0-2.34,4.23A17.14,17.14,0,0,0,83,29.88v13.8H81.72V23q0-.66,0-1.62l-.06-2q0-1-.09-1.89t-.12-1.5h1.32q.06.6.09,1.5t.06,2q0,1,.06,2t0,1.77h.12A11,11,0,0,1,84.84,19.92Z"/><path d="M124.8,44.22a10.09,10.09,0,0,1-1.86.18q-3.24,0-4.62-1.83A7.41,7.41,0,0,1,116.94,38V17.22h-6V16.08h5.94V8h1.32v8.1h8.1v1.14h-8.1V38A5.19,5.19,0,0,0,119.58,42a5.3,5.3,0,0,0,3.66,1.23,8.33,8.33,0,0,0,3.06-.54l.18,1A8.41,8.41,0,0,1,124.8,44.22Z"/><path d="M153.06,37.44q0,1.56.15,3.33t.33,2.91h-1.26a11.79,11.79,0,0,1-.18-1.47q-.06-.87-.15-1.8t-.12-1.83q0-.9,0-1.5h-.18a9.81,9.81,0,0,1-4.14,5.61,11.71,11.71,0,0,1-6.3,1.83,11.87,11.87,0,0,1-3.33-.48,9.53,9.53,0,0,1-3-1.44,7.26,7.26,0,0,1-2.13-2.46,7.34,7.34,0,0,1-.81-3.54,7.07,7.07,0,0,1,1.53-4.74,10.3,10.3,0,0,1,3.81-2.79,17.11,17.11,0,0,1,4.89-1.29,42.05,42.05,0,0,1,4.77-.3h4.8V25.26q0-4.62-2.46-6.75a9.46,9.46,0,0,0-6.42-2.13,11.67,11.67,0,0,0-4.59.9,13.66,13.66,0,0,0-3.81,2.4l-.72-1a13.41,13.41,0,0,1,4.35-2.55,14.09,14.09,0,0,1,4.77-.87,10.83,10.83,0,0,1,7.47,2.43q2.73,2.43,2.73,7.65Zm-1.32-8.82h-4.26a45.13,45.13,0,0,0-4.8.27A17.37,17.37,0,0,0,138.06,30a8.79,8.79,0,0,0-3.45,2.4,6.2,6.2,0,0,0-1.35,4.2,6.3,6.3,0,0,0,.75,3.21,6.17,6.17,0,0,0,1.92,2.07A8.33,8.33,0,0,0,138.51,43a10.81,10.81,0,0,0,2.67.36,10.34,10.34,0,0,0,5.1-1.14,9.62,9.62,0,0,0,3.27-2.91,11,11,0,0,0,1.71-3.9,18.93,18.93,0,0,0,.48-4.17Z"/><path d="M184.5,19.8a11.21,11.21,0,0,0-8-3.42,12.17,12.17,0,0,0-5.28,1.11,12.33,12.33,0,0,0-4,3,13.35,13.35,0,0,0-2.55,4.32,15.24,15.24,0,0,0,0,10.32,13,13,0,0,0,2.55,4.29,12.17,12.17,0,0,0,4,2.91,12.46,12.46,0,0,0,5.28,1.08,13.23,13.23,0,0,0,4.47-.78,10.5,10.5,0,0,0,3.81-2.34l.9.84a10.67,10.67,0,0,1-4.23,2.61,15.56,15.56,0,0,1-4.95.81,14.24,14.24,0,0,1-5.61-1.08,13.61,13.61,0,0,1-4.44-3,13.44,13.44,0,0,1-2.94-4.62,16.09,16.09,0,0,1-1.05-5.88,16.09,16.09,0,0,1,1.05-5.88,13.59,13.59,0,0,1,7.38-7.71,13.91,13.91,0,0,1,5.61-1.11,13.22,13.22,0,0,1,5,1,11.61,11.61,0,0,1,4.05,2.7Z"/><path d="M202.56,44.22a10.09,10.09,0,0,1-1.86.18q-3.24,0-4.62-1.83A7.41,7.41,0,0,1,194.7,38V17.22h-6V16.08h5.94V8H196v8.1h8.1v1.14H196V38A5.19,5.19,0,0,0,197.34,42,5.3,5.3,0,0,0,201,43.26a8.33,8.33,0,0,0,3.06-.54l.18,1A8.41,8.41,0,0,1,202.56,44.22Z"/></g></g></svg>