<svg xmlns="http://www.w3.org/2000/svg" viewBox="0 0 163.8 46.2"><title>アセット 27</title><g id="レイヤー_2" data-name="レイヤー 2"><g id="レイヤー_1-2" data-name="レイヤー 1"><path d="M36.36,45.36l-5-12.18H6.66L1.44,45.36H0L18.42,2.88H20.1L37.8,45.36ZM19.2,3.72,7.14,32H30.9Z"/><path d="M46.56,25.26A13.18,13.18,0,0,1,59,16.92,13.86,13.86,0,0,1,64.55,18a13.16,13.16,0,0,1,4.37,3.06,13.62,13.62,0,0,1,2.81,4.65,17,17,0,0,1,1,5.88,16.09,16.09,0,0,1-1,5.79A14.07,14.07,0,0,1,68.86,42a13.16,13.16,0,0,1-4.37,3.06A13.71,13.71,0,0,1,59,46.2a14,14,0,0,1-3.86-.54,12.9,12.9,0,0,1-3.5-1.59,13.76,13.76,0,0,1-2.94-2.58,12.12,12.12,0,0,1-2.09-3.57h-.18v7.44H45V0h1.38V25.26ZM71.4,31.62a15.36,15.36,0,0,0-.87-5.16,13.37,13.37,0,0,0-2.48-4.32,12.15,12.15,0,0,0-3.92-3,12.52,12.52,0,0,0-10.24,0,12.56,12.56,0,0,0-4,2.91,13.36,13.36,0,0,0-2.63,4.29,14.67,14.67,0,0,0,0,10.44,13.36,13.36,0,0,0,2.63,4.29,12.56,12.56,0,0,0,4,2.91A11.78,11.78,0,0,0,59,45.06a11.84,11.84,0,0,0,9.1-4,13,13,0,0,0,2.48-4.29A15.36,15.36,0,0,0,71.4,31.62Z"/><path d="M109,31.5a16.26,16.26,0,0,1-1,5.94,13.25,13.25,0,0,1-7.56,7.68,15.46,15.46,0,0,1-5.85,1.08,15.23,15.23,0,0,1-5.82-1.08,13.31,13.31,0,0,1-7.53-7.68,16.26,16.26,0,0,1-1-5.94,16,16,0,0,1,1-5.91,13.27,13.27,0,0,1,3-4.59,13.71,13.71,0,0,1,4.56-3,15.23,15.23,0,0,1,5.82-1.08A15.46,15.46,0,0,1,100.41,18,13.64,13.64,0,0,1,105,21a13.27,13.27,0,0,1,3,4.59A16,16,0,0,1,109,31.5Zm-1.32,0a15.07,15.07,0,0,0-.9-5.22A12.49,12.49,0,0,0,104.19,22a12.22,12.22,0,0,0-4.14-2.88,13.71,13.71,0,0,0-5.49-1.05,13.5,13.5,0,0,0-5.46,1.05A12.3,12.3,0,0,0,85,22a12.49,12.49,0,0,0-2.61,4.29,15.07,15.07,0,0,0-.9,5.22,15.25,15.25,0,0,0,.9,5.28A12.49,12.49,0,0,0,85,41.07,12.67,12.67,0,0,0,89.1,44a13.17,13.17,0,0,0,5.46,1.08A13.38,13.38,0,0,0,100.05,44a12.34,12.34,0,0,0,6.75-7.2A15.25,15.25,0,0,0,107.7,31.5Z"/><path d="M137.49,41.55a11,11,0,0,1-2.55,2.55,11.36,11.36,0,0,1-6.6,2.1,10.15,10.15,0,0,1-4.8-1,8.36,8.36,0,0,1-3.06-2.7,11,11,0,0,1-1.62-3.78,19.06,19.06,0,0,1-.48-4.26V17.76h1.32V34.32a19.4,19.4,0,0,0,.36,3.63,9.79,9.79,0,0,0,1.35,3.45A8.44,8.44,0,0,0,124.05,44a7.88,7.88,0,0,0,4.29,1.05,10,10,0,0,0,7.77-3.6,13.25,13.25,0,0,0,2.34-4.23,17.14,17.14,0,0,0,.87-5.67V17.76h1.32V38.4q0,.66,0,1.62t.06,1.95q0,1,.09,1.89t.12,1.5h-1.32q-.06-.6-.09-1.5t-.06-2q0-1-.06-2t0-1.77h-.12A13.07,13.07,0,0,1,137.49,41.55Z"/><path d="M162.12,45.9a10.09,10.09,0,0,1-1.86.18q-3.24,0-4.62-1.83a7.41,7.41,0,0,1-1.38-4.59V18.9h-6V17.76h5.94V9.66h1.32v8.1h8.1V18.9h-8.1V39.66a5.19,5.19,0,0,0,1.38,4.05,5.3,5.3,0,0,0,3.66,1.23,8.33,8.33,0,0,0,3.06-.54l.18,1A8.41,8.41,0,0,1,162.12,45.9Z"/></g></g></svg>