<svg xmlns="http://www.w3.org/2000/svg" viewBox="0 0 159.36 46.2"><title>アセット 18</title><g id="レイヤー_2" data-name="レイヤー 2"><g id="レイヤー_1-2" data-name="レイヤー 1"><path d="M41.28,45.36h-2L26.94,4.14h-.12L14.76,45.36h-2L0,2.88H1.38L13.62,44.16h.18L25.86,2.88h2L40.2,44.16h.18L52.62,2.88H54Z"/><path d="M88.26,31.5a16.26,16.26,0,0,1-1.05,5.94,13.25,13.25,0,0,1-7.56,7.68A15.46,15.46,0,0,1,73.8,46.2,15.23,15.23,0,0,1,68,45.12a13.31,13.31,0,0,1-7.53-7.68A16.26,16.26,0,0,1,59.4,31.5a16,16,0,0,1,1.05-5.91,13.27,13.27,0,0,1,3-4.59A13.71,13.71,0,0,1,68,18a15.23,15.23,0,0,1,5.82-1.08A15.46,15.46,0,0,1,79.65,18a13.64,13.64,0,0,1,4.59,3,13.27,13.27,0,0,1,3,4.59A16,16,0,0,1,88.26,31.5Zm-1.32,0a15.07,15.07,0,0,0-.9-5.22A12.49,12.49,0,0,0,83.43,22a12.22,12.22,0,0,0-4.14-2.88,13.71,13.71,0,0,0-5.49-1.05,13.5,13.5,0,0,0-5.46,1.05A12.3,12.3,0,0,0,64.23,22a12.49,12.49,0,0,0-2.61,4.29,15.07,15.07,0,0,0-.9,5.22,15.25,15.25,0,0,0,.9,5.28,12.49,12.49,0,0,0,2.61,4.29A12.67,12.67,0,0,0,68.34,44a13.17,13.17,0,0,0,5.46,1.08A13.38,13.38,0,0,0,79.29,44,12.34,12.34,0,0,0,86,36.78,15.25,15.25,0,0,0,86.94,31.5Z"/><path d="M103.5,18.81a9.6,9.6,0,0,1,5.7-1.89h.54a2.78,2.78,0,0,1,.54.06v1.14a1.86,1.86,0,0,0-.45-.06h-.33a8.28,8.28,0,0,0-4.5,1.17,9.72,9.72,0,0,0-3.06,3.06,14.06,14.06,0,0,0-1.77,4.2,19.1,19.1,0,0,0-.57,4.59V45.36H98.28V24.72q0-.66,0-1.62t-.06-2q0-1-.09-1.89T98,17.76H99.3q.06.6.09,1.5t.06,1.95q0,1,.06,2t0,1.77h.12A10.88,10.88,0,0,1,103.5,18.81Z"/><path d="M118.5,30.48l14.28-12.72h1.86L120.06,30.54l16.26,14.82h-2L118.5,30.78h-.06V45.36h-1.32V0h1.32V30.48Z"/><path d="M159.36,38.16A7.34,7.34,0,0,1,156.69,44a8.75,8.75,0,0,1-2.85,1.56,10.94,10.94,0,0,1-3.48.54,12.89,12.89,0,0,1-5.55-1.17,10.39,10.39,0,0,1-4.11-3.45l1.08-.72a10,10,0,0,0,8.64,4.2,9,9,0,0,0,2.67-.42,8,8,0,0,0,2.46-1.26,6.53,6.53,0,0,0,1.8-2.1,5.9,5.9,0,0,0,.69-2.88,5.19,5.19,0,0,0-.87-3.12A6.53,6.53,0,0,0,155,33.24a14,14,0,0,0-2.91-1.17q-1.59-.45-3-.81t-2.82-.93A8.39,8.39,0,0,1,144,29a5.74,5.74,0,0,1-1.56-2,7,7,0,0,1-.57-3,6.42,6.42,0,0,1,.72-3.12,6.53,6.53,0,0,1,1.92-2.19,8.87,8.87,0,0,1,2.73-1.32,10.9,10.9,0,0,1,3.09-.45q5.64,0,8.46,4l-1.14.66a9.07,9.07,0,0,0-3.12-2.67,9.31,9.31,0,0,0-4.2-.87,10.37,10.37,0,0,0-2.4.3,7.21,7.21,0,0,0-2.31,1,5.65,5.65,0,0,0-1.74,1.83,5.23,5.23,0,0,0-.69,2.76,6.19,6.19,0,0,0,.57,2.88,4.59,4.59,0,0,0,1.59,1.74,10,10,0,0,0,2.46,1.11q1.44.45,3.18.87a32.07,32.07,0,0,1,3.15,1,11.47,11.47,0,0,1,2.7,1.41,6.25,6.25,0,0,1,1.86,2.1A6.43,6.43,0,0,1,159.36,38.16Z"/></g></g></svg>