<svg xmlns="http://www.w3.org/2000/svg" viewBox="0 0 91.87 23.1"><title>アセット 39</title><g id="レイヤー_2" data-name="レイヤー 2"><g id="レイヤー_1-2" data-name="レイヤー 1"><path d="M17.06,22.66.8.9H.7V22.66H0V0H1L17.28,21.73h.1V0h.7V22.66Z"/><path d="M34.85,19.33c0,.55,0,1.14.08,1.77s.11,1.15.17,1.56h-.67a7,7,0,0,1-.09-.79c0-.31-.05-.63-.08-1s-.06-.65-.07-1,0-.59,0-.8h-.1a5.23,5.23,0,0,1-2.21,3,6.33,6.33,0,0,1-5.13.72,5.1,5.1,0,0,1-1.59-.77A3.77,3.77,0,0,1,24,20.77a3.91,3.91,0,0,1-.44-1.89,3.79,3.79,0,0,1,.82-2.53,5.55,5.55,0,0,1,2-1.49A9,9,0,0,1,29,14.18,21.75,21.75,0,0,1,31.58,14h2.56V12.83a4.51,4.51,0,0,0-1.31-3.6A5,5,0,0,0,29.41,8.1,6.22,6.22,0,0,0,27,8.58a7,7,0,0,0-2,1.28l-.39-.55A7.23,7.23,0,0,1,26.86,8a7.56,7.56,0,0,1,2.55-.46,5.79,5.79,0,0,1,4,1.29,5.22,5.22,0,0,1,1.46,4.08Zm-.71-4.71H31.87a23.18,23.18,0,0,0-2.56.15,9,9,0,0,0-2.46.59A4.72,4.72,0,0,0,25,16.64a3.29,3.29,0,0,0-.72,2.24,3.21,3.21,0,0,0,1.42,2.82,4.49,4.49,0,0,0,1.38.6,5.65,5.65,0,0,0,1.42.2,5.56,5.56,0,0,0,2.72-.61A5.17,5.17,0,0,0,33,20.34a6.05,6.05,0,0,0,.91-2.08A10.16,10.16,0,0,0,34.14,16Z"/><path d="M45.89,22.94a4.89,4.89,0,0,1-1,.1,2.9,2.9,0,0,1-2.47-1,3.93,3.93,0,0,1-.73-2.44V8.54H38.5v-.6h3.16V3.62h.71V7.94h4.32v.6H42.37V19.62a2.78,2.78,0,0,0,.73,2.16,2.88,2.88,0,0,0,2,.65,4.3,4.3,0,0,0,1.63-.29l.09.55A4.53,4.53,0,0,1,45.89,22.94Z"/><path d="M60.78,20.62A5.66,5.66,0,0,1,59.42,22a6,6,0,0,1-1.66.84,6.12,6.12,0,0,1-1.86.28,5.48,5.48,0,0,1-2.56-.54,4.46,4.46,0,0,1-1.63-1.44,6,6,0,0,1-.86-2,10.13,10.13,0,0,1-.26-2.27V7.94h.7v8.83a10.13,10.13,0,0,0,.2,1.93,5.21,5.21,0,0,0,.72,1.84,4.49,4.49,0,0,0,1.41,1.4,4.18,4.18,0,0,0,2.28.56,5.39,5.39,0,0,0,2.29-.5,5.47,5.47,0,0,0,1.86-1.42,6.91,6.91,0,0,0,1.24-2.26,9.12,9.12,0,0,0,.47-3V7.94h.7v11c0,.24,0,.53,0,.87l0,1c0,.35,0,.69.05,1s0,.58.06.8h-.7c0-.22,0-.48-.05-.8s0-.67,0-1,0-.74,0-1.09,0-.67,0-.95h-.06A6.81,6.81,0,0,1,60.78,20.62Z"/><path d="M72,8.5a5.07,5.07,0,0,1,3-1h.29l.29,0v.61l-.24,0h-.18a4.38,4.38,0,0,0-2.4.62,5.28,5.28,0,0,0-1.63,1.63,7.33,7.33,0,0,0-.94,2.24A9.85,9.85,0,0,0,70,15v7.62h-.7v-11c0-.24,0-.52,0-.87s0-.68,0-1,0-.68,0-1,0-.59-.06-.8h.7c0,.21,0,.48,0,.8s0,.66,0,1,0,.73,0,1.08,0,.67,0,1H70A5.79,5.79,0,0,1,72,8.5Z"/><path d="M78.72,15.14a8.92,8.92,0,0,0,.4,2.65,7,7,0,0,0,1.21,2.35,6.09,6.09,0,0,0,2.07,1.68,6.31,6.31,0,0,0,2.94.64,6.73,6.73,0,0,0,3.07-.68,6.84,6.84,0,0,0,2.34-2l.51.44a7,7,0,0,1-5.92,2.88,7.16,7.16,0,0,1-3-.59,6.74,6.74,0,0,1-2.32-1.65,7.24,7.24,0,0,1-1.51-2.52,9.51,9.51,0,0,1-.53-3.2,8.56,8.56,0,0,1,.55-3.08,7.57,7.57,0,0,1,1.49-2.43,6.52,6.52,0,0,1,2.23-1.58A6.71,6.71,0,0,1,85,7.49a6.88,6.88,0,0,1,3,.61,6.17,6.17,0,0,1,2.14,1.6A6.73,6.73,0,0,1,91.45,12a8.11,8.11,0,0,1,.42,2.58v.61Zm12.45-.61a7.84,7.84,0,0,0-.5-2.63,6.33,6.33,0,0,0-1.26-2,5.7,5.7,0,0,0-1.92-1.31A6.47,6.47,0,0,0,85,8.1a5.67,5.67,0,0,0-2.85.68,6.38,6.38,0,0,0-1.93,1.7,7.39,7.39,0,0,0-1.11,2.11,6.65,6.65,0,0,0-.35,1.94Z"/></g></g></svg>