<svg xmlns="http://www.w3.org/2000/svg" viewBox="0 0 48.61 24.83"><title>アセット 38</title><g id="レイヤー_2" data-name="レイヤー 2"><g id="レイヤー_1-2" data-name="レイヤー 1"><path d="M13.63,18.75a5.69,5.69,0,0,1-.56,2.58,5.78,5.78,0,0,1-1.49,1.92,6.25,6.25,0,0,1-2.19,1.18,8.57,8.57,0,0,1-2.64.4,9.62,9.62,0,0,1-3.85-.75,8.18,8.18,0,0,1-2.9-2l.54-.48a8,8,0,0,0,2.84,2,8.91,8.91,0,0,0,3.34.65,7.44,7.44,0,0,0,2.37-.37,6.16,6.16,0,0,0,2-1.05,4.9,4.9,0,0,0,1.36-1.7,5.18,5.18,0,0,0,.5-2.32,4.14,4.14,0,0,0-.55-2.21A5.5,5.5,0,0,0,11,15a8.27,8.27,0,0,0-2-1.07c-.74-.29-1.48-.55-2.23-.79-.94-.3-1.79-.61-2.57-.94a7.87,7.87,0,0,1-2-1.22A5,5,0,0,1,.88,9.26,5.78,5.78,0,0,1,.42,6.82,5.35,5.35,0,0,1,2.5,2.45,6.88,6.88,0,0,1,4.72,1.3,8.67,8.67,0,0,1,7.39.9a8.28,8.28,0,0,1,3.28.65,6.54,6.54,0,0,1,2.55,1.87l-.55.48a6.15,6.15,0,0,0-2.29-1.74,7.19,7.19,0,0,0-3-.62,7.86,7.86,0,0,0-2.26.32,6.51,6.51,0,0,0-2,1A5.21,5.21,0,0,0,1.66,4.48a4.82,4.82,0,0,0-.54,2.34A4.73,4.73,0,0,0,1.6,9a4.81,4.81,0,0,0,1.28,1.55,7.36,7.36,0,0,0,1.81,1.06c.67.28,1.36.53,2.06.77,1,.32,1.86.64,2.69,1a9.53,9.53,0,0,1,2.19,1.2A5,5,0,0,1,13.1,16.3,5.16,5.16,0,0,1,13.63,18.75Z"/><path d="M19.94,16.26l7.61-6.79h1l-7.77,6.82,8.67,7.9H28.38l-8.44-7.77h0v7.77h-.7V0h.7V16.26Z"/><path d="M33.79,3.94a.71.71,0,0,1-.51-.23.82.82,0,0,1-.22-.61.77.77,0,0,1,.22-.57.68.68,0,0,1,1,0,.78.78,0,0,1,.23.57.79.79,0,0,1-.24.61A.74.74,0,0,1,33.79,3.94Zm-.35,20.25V9.47h.7V24.19Z"/><path d="M40.67,24.19V0h.71V24.19Z"/><path d="M47.9,24.19V0h.71V24.19Z"/></g></g></svg>