<svg xmlns="http://www.w3.org/2000/svg" viewBox="0 0 157.97 17.88"><title>アセット 19</title><g id="レイヤー_2" data-name="レイヤー 2"><g id="レイヤー_1-2" data-name="レイヤー 1"><path d="M3.43,17.18H6.1V.77H4.7A8.87,8.87,0,0,0,3.62.85a3.1,3.1,0,0,0-1.21.47A4.12,4.12,0,0,0,1.24,2.53a8,8,0,0,0-1,2.29H0V.43H14.59V4.82h-.26a8,8,0,0,0-1-2.29,4.27,4.27,0,0,0-1.18-1.21A3.1,3.1,0,0,0,11,.85,8.87,8.87,0,0,0,9.89.77H8.5V17.18h2.66v.34H3.43Z"/><path d="M16.58,12.38a4.77,4.77,0,0,1,.52-2.18,6,6,0,0,1,1.32-1.74,6.1,6.1,0,0,1,1.8-1.14,4.87,4.87,0,0,1,3.91,0,5.85,5.85,0,0,1,1.8,1.14,6,6,0,0,1,1.32,1.74,4.64,4.64,0,0,1,.52,2.18,4.85,4.85,0,0,1-.48,2.13A6.06,6.06,0,0,1,26,16.25a6,6,0,0,1-1.79,1.17,5.07,5.07,0,0,1-4.13,0,6,6,0,0,1-1.79-1.17,6.06,6.06,0,0,1-1.26-1.74A4.85,4.85,0,0,1,16.58,12.38Zm2.4,0a11,11,0,0,0,.27,2.72,4.18,4.18,0,0,0,.69,1.54,2,2,0,0,0,1,.71,4.46,4.46,0,0,0,1.23.17,4.39,4.39,0,0,0,1.22-.17,2,2,0,0,0,1-.71,4,4,0,0,0,.69-1.54,11,11,0,0,0,.27-2.72A13.44,13.44,0,0,0,25.18,10a4.62,4.62,0,0,0-.59-1.58,2.33,2.33,0,0,0-1-.88,4,4,0,0,0-2.83,0,2.33,2.33,0,0,0-1,.88A4.42,4.42,0,0,0,19.18,10,12.48,12.48,0,0,0,19,12.38Z"/><path d="M29.33,17.18h1.85V7.56H29.33V7.22h3.86V9.74h.05a4.22,4.22,0,0,1,1.45-2.11A3.85,3.85,0,0,1,37,7a4.26,4.26,0,0,1,2.13.53,2.57,2.57,0,0,1,1.21,1.75h0a3.8,3.8,0,0,1,.45-.84,3.55,3.55,0,0,1,.72-.73,3.5,3.5,0,0,1,1-.52A4.3,4.3,0,0,1,43.9,7q3.49,0,3.5,3.58v6.64h1.85v.34H43.49v-.34h1.85V9a1.74,1.74,0,0,0-.45-1.27,1.61,1.61,0,0,0-1.21-.45,3.39,3.39,0,0,0-1.2.22,3.26,3.26,0,0,0-1.08.69,3.33,3.33,0,0,0-.78,1.17,4.34,4.34,0,0,0-.3,1.68v6.12h1.85v.34H36.41v-.34h1.85V9.36a2.36,2.36,0,0,0-.44-1.56,1.41,1.41,0,0,0-1.15-.5,2.84,2.84,0,0,0-1.1.25,3.43,3.43,0,0,0-1.12.79,4.44,4.44,0,0,0-.86,1.4,5.73,5.73,0,0,0-.35,2.12v5.32h1.85v.34H29.33Z"/><path d="M50.81,12.38a4.76,4.76,0,0,1,.51-2.18,6.35,6.35,0,0,1,1.32-1.74,6.1,6.1,0,0,1,1.8-1.14,4.89,4.89,0,0,1,3.92,0,6.1,6.1,0,0,1,1.8,1.14,6.35,6.35,0,0,1,1.32,1.74A4.76,4.76,0,0,1,62,12.38a4.85,4.85,0,0,1-.48,2.13,6.06,6.06,0,0,1-1.26,1.74,5.84,5.84,0,0,1-1.79,1.17,5,5,0,0,1-4.12,0,5.84,5.84,0,0,1-1.79-1.17,6.06,6.06,0,0,1-1.26-1.74A4.85,4.85,0,0,1,50.81,12.38Zm2.4,0a11,11,0,0,0,.26,2.72,4.17,4.17,0,0,0,.7,1.54,2,2,0,0,0,1,.71,4.46,4.46,0,0,0,2.44,0,2,2,0,0,0,1-.71,4.17,4.17,0,0,0,.7-1.54,11.55,11.55,0,0,0,.26-2.72A12.57,12.57,0,0,0,59.4,10a4.42,4.42,0,0,0-.59-1.58,2.31,2.31,0,0,0-1-.88,4,4,0,0,0-2.84,0,2.26,2.26,0,0,0-1,.88A4.42,4.42,0,0,0,53.4,10,12.57,12.57,0,0,0,53.21,12.38Z"/><path d="M71.54,12.36h.27a9.36,9.36,0,0,0,.68,2.18A6.19,6.19,0,0,0,73.42,16a4.08,4.08,0,0,0,1,.89,4.61,4.61,0,0,0,1.12.45,5.26,5.26,0,0,0,1.08.17c.34,0,.66,0,1,0a4.88,4.88,0,0,0,2.09-.38,3.71,3.71,0,0,0,1.29-1,3.57,3.57,0,0,0,.68-1.27,5.07,5.07,0,0,0,.19-1.26,3.19,3.19,0,0,0-.31-1.44,3.52,3.52,0,0,0-.8-1,4.48,4.48,0,0,0-1-.69,8.57,8.57,0,0,0-1.07-.41l-2.76-.84A7.08,7.08,0,0,1,73,7.68,3.57,3.57,0,0,1,72,5a5.06,5.06,0,0,1,.38-2,4.66,4.66,0,0,1,1.08-1.6A5,5,0,0,1,75.11.38,5.79,5.79,0,0,1,77.23,0a6,6,0,0,1,1.4.14,7,7,0,0,1,1,.33l.73.32A1.55,1.55,0,0,0,81,.94a.68.68,0,0,0,.42-.09,1.49,1.49,0,0,0,.3-.42h.33V4.78h-.28a7.3,7.3,0,0,0-.49-1.67,5.54,5.54,0,0,0-.9-1.42A4.26,4.26,0,0,0,79,.71,4.12,4.12,0,0,0,77.23.34,6.06,6.06,0,0,0,76,.49a4.37,4.37,0,0,0-1.3.54,3.18,3.18,0,0,0-1,1,2.85,2.85,0,0,0-.4,1.58,2.64,2.64,0,0,0,.31,1.31,3,3,0,0,0,.81.91,4.71,4.71,0,0,0,1.1.63c.41.17.82.31,1.24.44l2.9.91,1.15.39a5.1,5.1,0,0,1,1.36.72,4.11,4.11,0,0,1,1.13,1.27,4,4,0,0,1,.47,2,5.75,5.75,0,0,1-.42,2.14,5.37,5.37,0,0,1-1.22,1.8,5.86,5.86,0,0,1-1.92,1.25,6.61,6.61,0,0,1-2.54.47h-.89c-.25,0-.5,0-.72-.06l-.67-.11a6.56,6.56,0,0,1-.74-.18l-1-.34a3.18,3.18,0,0,0-1-.19.64.64,0,0,0-.49.15,1.23,1.23,0,0,0-.23.38h-.36Z"/><path d="M86.83,12.38a4.64,4.64,0,0,1,.52-2.18,6,6,0,0,1,1.32-1.74,5.85,5.85,0,0,1,1.8-1.14,5.13,5.13,0,0,1,2-.41,5.22,5.22,0,0,1,2,.41,6.1,6.1,0,0,1,1.8,1.14A6.35,6.35,0,0,1,97.5,10.2,4.76,4.76,0,0,1,98,12.38a5,5,0,0,1-.47,2.13,6.46,6.46,0,0,1-1.26,1.74,6.09,6.09,0,0,1-1.79,1.17,5.07,5.07,0,0,1-4.13,0,6,6,0,0,1-1.79-1.17,6.06,6.06,0,0,1-1.26-1.74A4.85,4.85,0,0,1,86.83,12.38Zm2.4,0a11,11,0,0,0,.27,2.72,4,4,0,0,0,.69,1.54,2,2,0,0,0,1,.71,4.39,4.39,0,0,0,1.22.17,4.51,4.51,0,0,0,1.23-.17,2,2,0,0,0,1-.71,4.35,4.35,0,0,0,.69-1.54,11,11,0,0,0,.27-2.72,12.48,12.48,0,0,0-.2-2.41,4.42,4.42,0,0,0-.59-1.58,2.26,2.26,0,0,0-1-.88,4,4,0,0,0-2.83,0,2.33,2.33,0,0,0-1,.88A4.62,4.62,0,0,0,89.42,10,12.57,12.57,0,0,0,89.23,12.38Z"/><path d="M99.77,17.18h1.85V7.56H99.77V7.22h3.91v10h1.85v.34H99.77Zm1.56-15.55a1.22,1.22,0,0,1,.37-.9,1.28,1.28,0,0,1,1.8,0,1.22,1.22,0,0,1,.37.9,1.22,1.22,0,0,1-.37.9,1.28,1.28,0,0,1-1.8,0A1.22,1.22,0,0,1,101.33,1.63Z"/><path d="M107.93,7.22h7.61l-6,10h3.38a2.14,2.14,0,0,0,1.14-.27,2.3,2.3,0,0,0,.72-.7,3.76,3.76,0,0,0,.44-.9c.1-.32.2-.62.3-.91h.19l-.31,3.12h-8.36l6-10H111c-.4,0-.75,0-1,0a1.68,1.68,0,0,0-.8.25,2,2,0,0,0-.67.69,8.26,8.26,0,0,0-.68,1.37h-.19Z"/><path d="M130.08,17.52h-3.87V15.1h0a10.27,10.27,0,0,1-.52,1,4.17,4.17,0,0,1-.74.89,3.73,3.73,0,0,1-1,.64,3.5,3.5,0,0,1-1.38.26,4.81,4.81,0,0,1-1.57-.22,3.82,3.82,0,0,1-.93-.46,4.08,4.08,0,0,1-.37-.3,1.81,1.81,0,0,1-.38-.49,3.51,3.51,0,0,1-.28-.8,5.2,5.2,0,0,1-.12-1.21V7.56H117V7.22h3.91v7.37a6.79,6.79,0,0,0,.09,1.15,2.44,2.44,0,0,0,.32.93,1.84,1.84,0,0,0,.62.62,2,2,0,0,0,1,.23,2.21,2.21,0,0,0,1.09-.31,3.74,3.74,0,0,0,1-.89,4.81,4.81,0,0,0,.77-1.38,4.94,4.94,0,0,0,.32-1.81V7.56h-1.83V7.22h3.89v10h1.85Z"/><path d="M131.13,17.18H133V7.56h-1.85V7.22H135V9.74h.05a4.16,4.16,0,0,1,1.45-2.11A3.83,3.83,0,0,1,138.79,7a4.2,4.2,0,0,1,2.12.53,2.58,2.58,0,0,1,1.22,1.75h0a4.32,4.32,0,0,1,.46-.84,3.11,3.11,0,0,1,.72-.73,3.5,3.5,0,0,1,1-.52A4.23,4.23,0,0,1,145.7,7q3.51,0,3.51,3.58v6.64h1.84v.34h-5.76v-.34h1.85V9a1.78,1.78,0,0,0-.44-1.27,1.63,1.63,0,0,0-1.21-.45,3.39,3.39,0,0,0-1.2.22,3.26,3.26,0,0,0-1.08.69,3.33,3.33,0,0,0-.78,1.17,4.34,4.34,0,0,0-.3,1.68v6.12H144v.34h-5.76v-.34h1.85V9.36a2.36,2.36,0,0,0-.43-1.56,1.42,1.42,0,0,0-1.15-.5,2.84,2.84,0,0,0-1.11.25,3.3,3.3,0,0,0-1.11.79,4.46,4.46,0,0,0-.87,1.4,5.75,5.75,0,0,0-.34,2.12v5.32h1.84v.34h-5.76Z"/><path d="M152.21,17.18h1.84V7.56h-1.84V7.22h3.91v10H158v.34h-5.76Zm1.56-15.55a1.22,1.22,0,0,1,.37-.9,1.28,1.28,0,0,1,1.8,0,1.22,1.22,0,0,1,.37.9,1.22,1.22,0,0,1-.37.9,1.28,1.28,0,0,1-1.8,0A1.22,1.22,0,0,1,153.77,1.63Z"/></g></g></svg>