<svg xmlns="http://www.w3.org/2000/svg" viewBox="0 0 129.63 82.17"><defs><style>.cls-1{fill:#fff;}</style></defs><title>アセット 24</title><g id="レイヤー_2" data-name="レイヤー 2"><g id="レイヤー_1-2" data-name="レイヤー 1"><path class="cls-1" d="M41.18,25.13h4V.5H43.09a12.52,12.52,0,0,0-1.62.13,4.63,4.63,0,0,0-1.82.7,6.27,6.27,0,0,0-1.76,1.82,11.66,11.66,0,0,0-1.46,3.44H36V0H57.92V6.59h-.39a11.93,11.93,0,0,0-1.46-3.44A6.29,6.29,0,0,0,54.3,1.33a4.59,4.59,0,0,0-1.81-.7A12.52,12.52,0,0,0,50.87.5H48.78V25.13h4v.5H41.18Z"/><path class="cls-1" d="M60.91,17.93a7.17,7.17,0,0,1,.77-3.28,9.19,9.19,0,0,1,2-2.61,9.35,9.35,0,0,1,2.7-1.71,7.71,7.71,0,0,1,2.94-.61,7.62,7.62,0,0,1,2.93.61A9.09,9.09,0,0,1,74.93,12a8.84,8.84,0,0,1,2,2.61,7.05,7.05,0,0,1,.78,3.28A7.19,7.19,0,0,1,77,21.11a8.95,8.95,0,0,1-4.58,4.38,7.69,7.69,0,0,1-6.19,0,9,9,0,0,1-4.57-4.38A7.19,7.19,0,0,1,60.91,17.93Zm3.6,0a16.4,16.4,0,0,0,.4,4.07,6.28,6.28,0,0,0,1,2.32,3,3,0,0,0,1.51,1.06,6.49,6.49,0,0,0,1.84.25,6.37,6.37,0,0,0,1.83-.25,3.05,3.05,0,0,0,1.52-1.06,6.28,6.28,0,0,0,1-2.32,16.9,16.9,0,0,0,.4-4.07,19.25,19.25,0,0,0-.29-3.62,7,7,0,0,0-.88-2.38,3.42,3.42,0,0,0-1.5-1.31,5.84,5.84,0,0,0-4.25,0,3.39,3.39,0,0,0-1.49,1.31,6.76,6.76,0,0,0-.88,2.38A19.25,19.25,0,0,0,64.51,17.93Z"/><path class="cls-1" d="M80,25.13H82.8V10.69H80v-.5h5.79V14h.07a6.29,6.29,0,0,1,2.18-3.17,5.83,5.83,0,0,1,3.44-1,6.42,6.42,0,0,1,3.19.79,3.86,3.86,0,0,1,1.81,2.63h.08A5.54,5.54,0,0,1,97.27,12a5.11,5.11,0,0,1,1.08-1.1,5.23,5.23,0,0,1,1.53-.77,6.48,6.48,0,0,1,2-.29q5.25,0,5.25,5.37v10h2.78v.5h-8.64v-.5H104V12.89a2.6,2.6,0,0,0-.67-1.91,2.4,2.4,0,0,0-1.82-.68,5,5,0,0,0-1.8.34,4.93,4.93,0,0,0-1.62,1A5.16,5.16,0,0,0,97,13.43,6.52,6.52,0,0,0,96.51,16v9.18h2.78v.5H90.65v-.5h2.77V13.39a3.57,3.57,0,0,0-.65-2.34A2.17,2.17,0,0,0,91,10.3a4.31,4.31,0,0,0-1.65.37,5.19,5.19,0,0,0-1.68,1.19A6.47,6.47,0,0,0,86.42,14a8.44,8.44,0,0,0-.53,3.17v8h2.78v.5H80Z"/><path class="cls-1" d="M112.25,17.93a7,7,0,0,1,.77-3.28A9.19,9.19,0,0,1,115,12a9.09,9.09,0,0,1,2.7-1.71,7.37,7.37,0,0,1,5.87,0,9.35,9.35,0,0,1,2.7,1.71,9.19,9.19,0,0,1,2,2.61,7.38,7.38,0,0,1,.05,6.46,9,9,0,0,1-4.57,4.38,7.69,7.69,0,0,1-6.19,0A9,9,0,0,1,113,21.11,7.19,7.19,0,0,1,112.25,17.93Zm3.6,0a17,17,0,0,0,.39,4.07,6.27,6.27,0,0,0,1.05,2.32,3,3,0,0,0,1.51,1.06,6.42,6.42,0,0,0,1.83.25,6.49,6.49,0,0,0,1.84-.25A3,3,0,0,0,124,24.32,6.44,6.44,0,0,0,125,22a17,17,0,0,0,.39-4.07,18.44,18.44,0,0,0-.29-3.62,6.76,6.76,0,0,0-.88-2.38,3.34,3.34,0,0,0-1.49-1.31,5.84,5.84,0,0,0-4.25,0A3.34,3.34,0,0,0,117,11.93a7,7,0,0,0-.89,2.38A19.34,19.34,0,0,0,115.85,17.93Z"/><path class="cls-1" d="M0,73.89H.4a14.3,14.3,0,0,0,1,3.28,9.07,9.07,0,0,0,1.39,2.19A6.23,6.23,0,0,0,4.39,80.7a6.66,6.66,0,0,0,1.68.68,8,8,0,0,0,1.62.25c.51,0,1,0,1.45,0a7.31,7.31,0,0,0,3.14-.58,5.42,5.42,0,0,0,1.94-1.46,5.15,5.15,0,0,0,1-1.9,7.19,7.19,0,0,0,.29-1.89,4.65,4.65,0,0,0-.47-2.16,5.16,5.16,0,0,0-1.19-1.53,6.45,6.45,0,0,0-1.57-1,10.36,10.36,0,0,0-1.6-.61L6.55,69.25a10.65,10.65,0,0,1-4.41-2.38,5.32,5.32,0,0,1-1.49-4,7.78,7.78,0,0,1,.57-3,7.16,7.16,0,0,1,1.62-2.4,7.5,7.5,0,0,1,2.51-1.58,8.45,8.45,0,0,1,3.18-.58,8.43,8.43,0,0,1,2.11.22,9.26,9.26,0,0,1,1.46.48l1.09.49a2.53,2.53,0,0,0,1,.22,1.09,1.09,0,0,0,.63-.13,2.2,2.2,0,0,0,.45-.63h.51v6.52h-.43A11,11,0,0,0,14.6,60a7.83,7.83,0,0,0-1.35-2.12,6.47,6.47,0,0,0-2-1.48,6.29,6.29,0,0,0-2.72-.55,8.61,8.61,0,0,0-1.91.23,6.24,6.24,0,0,0-1.94.81,4.78,4.78,0,0,0-1.49,1.51,4.35,4.35,0,0,0-.6,2.38,3.87,3.87,0,0,0,.47,2,4.42,4.42,0,0,0,1.21,1.37,7.34,7.34,0,0,0,1.65.93,18,18,0,0,0,1.86.67l4.35,1.37c.46.14,1,.33,1.73.57a7.68,7.68,0,0,1,2,1.08,6.32,6.32,0,0,1,1.7,1.91,6,6,0,0,1,.7,3,8.4,8.4,0,0,1-.63,3.22,8.1,8.1,0,0,1-1.82,2.7A8.91,8.91,0,0,1,13,81.47a9.85,9.85,0,0,1-3.82.7c-.5,0-.94,0-1.33,0a9.07,9.07,0,0,1-1.08-.09c-.33,0-.67-.1-1-.16a11,11,0,0,1-1.11-.27c-.48-.14-1-.31-1.55-.5a4.53,4.53,0,0,0-1.44-.29,1,1,0,0,0-.74.22,1.91,1.91,0,0,0-.34.57H0Z"/><path class="cls-1" d="M22.93,73.93a7.05,7.05,0,0,1,.78-3.28,8.84,8.84,0,0,1,2-2.61,9.09,9.09,0,0,1,2.7-1.71,7.34,7.34,0,0,1,5.86,0A9.09,9.09,0,0,1,37,68a8.84,8.84,0,0,1,2,2.61,7.05,7.05,0,0,1,.78,3.28A7.19,7.19,0,0,1,39,77.11a8.83,8.83,0,0,1-1.89,2.61,8.93,8.93,0,0,1-2.68,1.77,7.72,7.72,0,0,1-6.2,0,8.93,8.93,0,0,1-2.68-1.77,8.83,8.83,0,0,1-1.89-2.61A7.19,7.19,0,0,1,22.93,73.93Zm3.6,0a16.4,16.4,0,0,0,.4,4.07,6.28,6.28,0,0,0,1,2.32,3,3,0,0,0,1.51,1.06,6.9,6.9,0,0,0,3.68,0,3,3,0,0,0,1.51-1.06,6.28,6.28,0,0,0,1-2.32,16.4,16.4,0,0,0,.4-4.07,19.25,19.25,0,0,0-.29-3.62,7,7,0,0,0-.88-2.38,3.42,3.42,0,0,0-1.5-1.31,5.82,5.82,0,0,0-4.24,0,3.42,3.42,0,0,0-1.5,1.31,7,7,0,0,0-.88,2.38A19.25,19.25,0,0,0,26.53,73.93Z"/><path class="cls-1" d="M42.34,81.13h2.77V66.69H42.34v-.5H48.2V81.13H51v.5H42.34ZM44.68,57.8a1.83,1.83,0,0,1,.55-1.35,1.87,1.87,0,0,1,1.35-.56,1.84,1.84,0,0,1,1.35.56,1.91,1.91,0,0,1,0,2.7,1.84,1.84,0,0,1-1.35.56,1.87,1.87,0,0,1-1.35-.56A1.83,1.83,0,0,1,44.68,57.8Z"/><path class="cls-1" d="M54.57,66.19H66L57,81.13H62.1a3.19,3.19,0,0,0,1.71-.42,3.46,3.46,0,0,0,1.08-1,6,6,0,0,0,.65-1.35c.15-.48.3-.94.45-1.37h.28l-.46,4.68H53.28l9-14.94H59.15c-.6,0-1.13,0-1.57.06a2.68,2.68,0,0,0-1.2.37,3.29,3.29,0,0,0-1,1,11.82,11.82,0,0,0-1,2h-.29Z"/><path class="cls-1" d="M87.8,81.63H82V78h-.07a13.76,13.76,0,0,1-.78,1.45,5.73,5.73,0,0,1-2.66,2.31,5.27,5.27,0,0,1-2.07.38,6.92,6.92,0,0,1-2.34-.33,5.8,5.8,0,0,1-1.41-.68c-.17-.12-.35-.27-.56-.45a2.59,2.59,0,0,1-.55-.74,4.91,4.91,0,0,1-.44-1.21A7.78,7.78,0,0,1,71,76.92V66.69H68.18v-.5h5.87v11A10.4,10.4,0,0,0,74.18,79a3.64,3.64,0,0,0,.48,1.38,2.65,2.65,0,0,0,.94.94,2.91,2.91,0,0,0,1.51.34,3.32,3.32,0,0,0,1.64-.47,5.32,5.32,0,0,0,1.55-1.33,7.88,7.88,0,0,0,1.17-2.07A7.49,7.49,0,0,0,81.94,75V66.69H79.2v-.5H85V81.13H87.8Z"/><path class="cls-1" d="M89.39,81.13h2.77V66.69H89.39v-.5h5.79V70h.07a6.29,6.29,0,0,1,2.18-3.17,5.83,5.83,0,0,1,3.44-1,6.42,6.42,0,0,1,3.19.79,3.86,3.86,0,0,1,1.81,2.63H106a5.54,5.54,0,0,1,.68-1.26,5.11,5.11,0,0,1,1.08-1.1,5.23,5.23,0,0,1,1.53-.77,6.48,6.48,0,0,1,2-.29q5.25,0,5.25,5.37v10h2.78v.5h-8.64v-.5h2.77V68.89a2.6,2.6,0,0,0-.67-1.91,2.4,2.4,0,0,0-1.82-.68,5,5,0,0,0-1.8.34,4.93,4.93,0,0,0-1.62,1,5.16,5.16,0,0,0-1.17,1.77,6.52,6.52,0,0,0-.45,2.52v9.18h2.78v.5H100v-.5h2.77V69.39a3.57,3.57,0,0,0-.65-2.34,2.17,2.17,0,0,0-1.73-.75,4.31,4.31,0,0,0-1.65.37,5.19,5.19,0,0,0-1.68,1.19A6.47,6.47,0,0,0,95.78,70a8.44,8.44,0,0,0-.53,3.17v8H98v.5H89.39Z"/><path class="cls-1" d="M121,81.13h2.78V66.69H121v-.5h5.87V81.13h2.77v.5H121Zm2.34-23.33a1.91,1.91,0,1,1,.56,1.35A1.84,1.84,0,0,1,123.33,57.8Z"/></g></g></svg>