<svg xmlns="http://www.w3.org/2000/svg" viewBox="0 0 333.43 155.64"><title>アセット 20</title><g id="レイヤー_2" data-name="レイヤー 2"><g id="レイヤー_1-2" data-name="レイヤー 1"><path d="M10.3,51.55h8V2.3H14.11a23.39,23.39,0,0,0-3.24.26A9.07,9.07,0,0,0,7.24,4,12.32,12.32,0,0,0,3.71,7.6,23.52,23.52,0,0,0,.79,14.47H0V1.3H43.78V14.47H43A23.26,23.26,0,0,0,40.07,7.6,12.56,12.56,0,0,0,36.54,4a9.11,9.11,0,0,0-3.64-1.4,23.39,23.39,0,0,0-3.24-.26H25.49V51.55h8v1H10.3Z"/><path d="M53.21,26.86A24.93,24.93,0,0,1,55.48,16.2a29.63,29.63,0,0,1,5.83-8.5,27.15,27.15,0,0,1,8-5.65,21.15,21.15,0,0,1,8.92-2,22.07,22.07,0,0,1,9.26,2.05,26.73,26.73,0,0,1,8,5.65,28,28,0,0,1,5.66,8.5,26.59,26.59,0,0,1,2.12,10.66,26.28,26.28,0,0,1-1.94,9.86,28.82,28.82,0,0,1-5.33,8.57,27.23,27.23,0,0,1-8,6.05,21.6,21.6,0,0,1-9.83,2.3,22.72,22.72,0,0,1-10-2.23,25.66,25.66,0,0,1-8-5.94,27.35,27.35,0,0,1-5.22-8.57A27.67,27.67,0,0,1,53.21,26.86Zm8.28,0a65.48,65.48,0,0,0,.86,11.3,22.88,22.88,0,0,0,2.88,8.06,12.84,12.84,0,0,0,5.19,4.83,17.49,17.49,0,0,0,7.84,1.58,17.64,17.64,0,0,0,7.82-1.58,12.85,12.85,0,0,0,5.22-4.83,22.88,22.88,0,0,0,2.88-8.06A65.48,65.48,0,0,0,95,26.86a69.89,69.89,0,0,0-.65-9.62A26.47,26.47,0,0,0,91.91,9,14.86,14.86,0,0,0,86.8,3.17,15.27,15.27,0,0,0,78.26,1a15.26,15.26,0,0,0-8.53,2.16A14.78,14.78,0,0,0,64.62,9a26.47,26.47,0,0,0-2.48,8.28A68.35,68.35,0,0,0,61.49,26.86Z"/><path d="M111.89,51.55h8V2.3h-8v-1h16.2L141.41,40h.14L154.87,1.3h15.91v1h-8V51.55h8v1H147.6v-1h8V2.74h-.14L138.24,52.63,121.1,3.24H121V51.55h8v1H111.89Z"/><path d="M179.35,26.86a25.08,25.08,0,0,1,2.27-10.66,29.63,29.63,0,0,1,5.83-8.5,27.28,27.28,0,0,1,8-5.65,21.16,21.16,0,0,1,8.93-2,22.06,22.06,0,0,1,9.25,2.05,26.77,26.77,0,0,1,8,5.65,28,28,0,0,1,5.65,8.5,26.59,26.59,0,0,1,2.12,10.66,26.28,26.28,0,0,1-1.94,9.86,28.62,28.62,0,0,1-5.33,8.57,27.23,27.23,0,0,1-8,6.05,21.56,21.56,0,0,1-9.82,2.3,22.76,22.76,0,0,1-10-2.23,25.77,25.77,0,0,1-8-5.94,27.35,27.35,0,0,1-5.22-8.57A27.67,27.67,0,0,1,179.35,26.86Zm8.28,0a65.48,65.48,0,0,0,.86,11.3,22.88,22.88,0,0,0,2.88,8.06,12.91,12.91,0,0,0,5.19,4.83,20.19,20.19,0,0,0,15.66,0,12.85,12.85,0,0,0,5.22-4.83,22.88,22.88,0,0,0,2.88-8.06,65.48,65.48,0,0,0,.86-11.3,68.35,68.35,0,0,0-.65-9.62A26.47,26.47,0,0,0,218.05,9a14.78,14.78,0,0,0-5.11-5.79,17.94,17.94,0,0,0-17.07,0A14.86,14.86,0,0,0,190.76,9a26.47,26.47,0,0,0-2.48,8.28A69.89,69.89,0,0,0,187.63,26.86Z"/><path d="M2.66,139.08h.8a28.48,28.48,0,0,0,2.05,6.55A18.73,18.73,0,0,0,8.28,150a12.25,12.25,0,0,0,3.17,2.67,13.84,13.84,0,0,0,3.35,1.37,16.68,16.68,0,0,0,3.24.5c1,.05,2,.07,2.91.07a14.76,14.76,0,0,0,6.27-1.15,10.88,10.88,0,0,0,3.88-2.92,10.34,10.34,0,0,0,2-3.81A14.27,14.27,0,0,0,33.7,143a9.31,9.31,0,0,0-.94-4.32,10.33,10.33,0,0,0-2.38-3.06,13,13,0,0,0-3.13-2.05,21.64,21.64,0,0,0-3.2-1.23l-8.28-2.52A21.29,21.29,0,0,1,7,125a10.65,10.65,0,0,1-3-7.92,15.47,15.47,0,0,1,1.15-6,14.09,14.09,0,0,1,3.24-4.79,15.14,15.14,0,0,1,5-3.17A17.1,17.1,0,0,1,19.73,102a17.25,17.25,0,0,1,4.21.43,19.17,19.17,0,0,1,2.92,1l2.19,1a5,5,0,0,0,2,.43,2.24,2.24,0,0,0,1.26-.25,4.72,4.72,0,0,0,.9-1.26h1v13h-.86a21.86,21.86,0,0,0-1.48-5,15.65,15.65,0,0,0-2.7-4.24,12.75,12.75,0,0,0-4-3A12.54,12.54,0,0,0,19.73,103a17.13,17.13,0,0,0-3.82.47A12,12,0,0,0,12,105.1a9.55,9.55,0,0,0-3,3,8.65,8.65,0,0,0-1.19,4.75,7.77,7.77,0,0,0,.93,3.93,9.06,9.06,0,0,0,2.42,2.73,14.2,14.2,0,0,0,3.31,1.87c1.22.51,2.46.95,3.71,1.34l8.71,2.73c.91.29,2.06.67,3.45,1.15a15.41,15.41,0,0,1,4.07,2.16,12.62,12.62,0,0,1,3.39,3.82,11.8,11.8,0,0,1,1.4,6.05A16.76,16.76,0,0,1,38,145.09a16,16,0,0,1-3.64,5.4,17.84,17.84,0,0,1-5.76,3.75,19.84,19.84,0,0,1-7.63,1.4c-1,0-1.9,0-2.66,0a17.79,17.79,0,0,1-2.16-.18c-.67-.09-1.35-.2-2-.32a21.52,21.52,0,0,1-2.23-.54c-1-.29-2-.62-3.1-1A9,9,0,0,0,5.9,153a1.94,1.94,0,0,0-1.47.43,3.81,3.81,0,0,0-.69,1.15H2.66Z"/><path d="M52,128.86a25.08,25.08,0,0,1,2.27-10.66,29.83,29.83,0,0,1,5.83-8.5,27.28,27.28,0,0,1,8-5.65A21.19,21.19,0,0,1,77,102a22,22,0,0,1,9.25,2,26.64,26.64,0,0,1,8,5.65,27.81,27.81,0,0,1,5.65,8.5,26.43,26.43,0,0,1,2.13,10.66,26.1,26.1,0,0,1-1.95,9.86,28.42,28.42,0,0,1-5.33,8.57,27.05,27.05,0,0,1-7.95,6.05,21.63,21.63,0,0,1-9.83,2.3,22.76,22.76,0,0,1-10-2.23,25.73,25.73,0,0,1-8-5.94,27,27,0,0,1-5.22-8.57A27.68,27.68,0,0,1,52,128.86Zm8.28,0a64.42,64.42,0,0,0,.87,11.3A22.49,22.49,0,0,0,64,148.22a12.82,12.82,0,0,0,5.18,4.83A17.53,17.53,0,0,0,77,154.63a17.56,17.56,0,0,0,7.81-1.58,12.73,12.73,0,0,0,5.22-4.83A22.49,22.49,0,0,0,93,140.16a64.42,64.42,0,0,0,.87-11.3,69.89,69.89,0,0,0-.65-9.62A26.21,26.21,0,0,0,90.68,111a14.71,14.71,0,0,0-5.11-5.79A15.24,15.24,0,0,0,77,103a15.24,15.24,0,0,0-8.53,2.16A14.71,14.71,0,0,0,63.4,111a26.21,26.21,0,0,0-2.49,8.28A69.89,69.89,0,0,0,60.26,128.86Z"/><path d="M111.17,153.55h8V104.3h-8v-1h23.18v1h-8v49.25h8v1H111.17Z"/><path d="M146.08,103.3h34.35l-30.17,50.25H166.1a12,12,0,0,0,5.55-1A16.17,16.17,0,0,0,175.1,150a17.36,17.36,0,0,0,3.24-4.39,23.41,23.41,0,0,0,2.45-6.84h.79v15.77H141.77l30-50.26H160.63q-5.83,0-9.07,3.06a17.54,17.54,0,0,0-4.68,8.46h-.8Z"/><path d="M188.49,103.3h23.19v1h-8v34.78a30.49,30.49,0,0,0,.75,7.31,12.22,12.22,0,0,0,2.27,4.82,8.37,8.37,0,0,0,3.74,2.63,15.25,15.25,0,0,0,5.12.79,19.61,19.61,0,0,0,7.12-1.19,11.84,11.84,0,0,0,5.33-4.21,17,17,0,0,0,1.26-1.87,11.28,11.28,0,0,0,.94-2.2,17,17,0,0,0,.61-3,37.62,37.62,0,0,0,.22-4.36V104.3h-8v-1h17.07v1h-8v34.92a21.88,21.88,0,0,1-.64,5.51,14.8,14.8,0,0,1-2.67,5.15,13.66,13.66,0,0,1-5.4,4.18,22.26,22.26,0,0,1-9.14,1.58q-8.64,0-13.21-4.25t-4.57-13V104.3h-8Z"/><path d="M245.3,153.55h8V104.3h-8v-1h16.2L274.82,142H275l13.32-38.73H304.2v1h-8v49.25h8v1H281v-1h8V104.74h-.14l-17.21,49.89-17.13-49.39h-.15v48.31h8v1H245.3Z"/><path d="M310.24,153.55h8V104.3h-8v-1h23.19v1h-8v49.25h8v1H310.24Z"/></g></g></svg>