<svg xmlns="http://www.w3.org/2000/svg" viewBox="0 0 160 36.34"><defs><style>.cls-1{fill:#1a1918;}.cls-1,.cls-2{fill-rule:evenodd;}.cls-2{fill:#21609b;}</style></defs><title>アセット 35</title><g id="レイヤー_2" data-name="レイヤー 2"><g id="レイヤー_1-2" data-name="レイヤー 1"><path class="cls-1" d="M153.28,2.68l6.72,0L146.48,21a7.75,7.75,0,0,0-1.09,1.53,33.48,33.48,0,0,0-1.31,4.8l-6.14,0a25.31,25.31,0,0,0,.92-5.27c0-1.6-.85-3.2-1.31-4.81s-1.09-4.8-1.09-4.8h6.32l.87,3.49,9.63-13.33"/><path class="cls-1" d="M140.55,6.29c1.24.75,2,4.87,2,4.87l-10,.07h-3l-3.71,16.13h-5.66s3.52-17.51,4.36-20.68c.27-1,1.84-.85,4.5-.85h4.26c2.75,0,6-.35,7.31.46m-26.37,7.82a3.38,3.38,0,0,0-.6-2.24c-.66-1-1.27-1.25-3-1.31-4.92-.15-4.82,3.49-4.82,3.49Zm5.36-4.18c.72,2.6-.66,8.72-.66,8.72s-7.18-.12-11.11,0c-1.22,0-2.69-.14-3,.43-.51.8.19,2,.78,2.55a5,5,0,0,0,2.49.72,81.71,81.71,0,0,0,9.87.11l-1.16,5.12s-9.44.47-14.16-.65a4.78,4.78,0,0,1-2.4-1.31,6.19,6.19,0,0,1-.45-.62,5.78,5.78,0,0,1-.64-1.12C98,21,99.18,15.5,100.36,12.55c.14-.35.31-.78.49-1.15s.42-1,.6-1.25.27-.31.4-.49.32-.42.47-.6a9.54,9.54,0,0,1,1.53-1.31,14.46,14.46,0,0,1,9.8-2.18c1.61.17,4,.75,5.23,2.4a7.27,7.27,0,0,1,.66,2Zm-26-4.17,5.52,0S96,20.27,94.4,27.36H88.08c-4.41,0-8.34.54-10-2.61s-.08-8.12.65-11.54c.52-2.43,1.6-7.38,1.6-7.38L86,5.77S84.4,13.5,83.73,17.36c-.24,1.38-.73,2.68-.22,3.7s1.18,1,3.27,1.09c.66,0,2.83,0,2.83,0L93.54,5.81M67.82,16.23c.58-2,1.42-4.26,1.31-6.1A5.24,5.24,0,0,0,66.3,6a7.25,7.25,0,0,0-7.41,1.75c-1.55,1.67-2.07,3.62-2.62,6.32-.4,2-.74,4.1,0,5.66,1.32,2.75,5.41,2.15,9.81,2.18.65-1.75,1.19-3.72,1.74-5.67Zm7.63-8.06c.63,4.56-1.78,9.6-3.44,14,1.69.15,3.17,0,3.28.1s-1.13,5.23-1.57,5.24c-1.34,0-5.79.07-7.64.07-6,0-11.71.4-14.6-2.61a9.54,9.54,0,0,1-2.18-4.79A20.49,20.49,0,0,1,50,12.75a21.93,21.93,0,0,1,2.18-5.67c2.54-4.44,7-7.73,14.38-7a14,14,0,0,1,4.79,1.52c.09.06.4.31.47.35a9.49,9.49,0,0,1,3.67,6.19ZM48.66,5.79c-.36,1.66-.73,3.54-1.11,5.18H41.47c.47-1.82.83-3.63,1.31-5.21l5.86,0m-7.39,6.72h5.87c-.77,4.26-2.29,11.13-3.48,15.91-.75,3-1.25,5.17-3.27,6.75-.18.14-.29.08-.44.22a8.11,8.11,0,0,1-3,.87,43.29,43.29,0,0,1-5.21,0c.5-1.82,1.06-4,1.51-5.64,4.65.56,4.76-3.83,5.66-8.07.52-2.44,2.1-9,2.4-10"/><path class="cls-2" d="M27.51,23.64l-.12.33c-2.15,4.18-6,6.75-11.39,6.86a16.11,16.11,0,0,1-6.54-1.3,17,17,0,0,1-7.84-7.41C-.63,17.77-1,11.71,3.64,7.19c.07,0-.57,1-.49,1L3,8.59C-.35,19.13,10,28.16,20.1,27.13a13.23,13.23,0,0,0,7.41-3.49"/><path class="cls-2" d="M21.41,19.28a9.62,9.62,0,0,0,6.76-2.83c-1.38,3.49-5.35,5.73-10.68,5-4.46-.59-8.71-5.08-9.15-9.58C8,8.6,9.16,6.65,11,4.28a8,8,0,0,0-1,2.8c-.71,7.09,5.66,12.17,11.33,12.2"/><path class="cls-2" d="M27.91,10.49a7.89,7.89,0,0,1-3.67,2.82,7,7,0,0,1-7.84-3.18,10.17,10.17,0,0,1-.63-1.41C15.25,7,15.49,4.3,17,2.93a7.31,7.31,0,0,0-.29,3.81A8.61,8.61,0,0,0,17.79,9a6.11,6.11,0,0,0,2.4,2.11,6.12,6.12,0,0,0,1.21.58c1,.3,3.11,1.07,6.51-1.24"/></g></g></svg>