<svg xmlns="http://www.w3.org/2000/svg" viewBox="0 0 160 155.73"><defs><style>.cls-1{fill:#3c0500;}.cls-2,.cls-3{fill:#ed6c00;}.cls-3{fill-rule:evenodd;}</style></defs><title>アセット 33</title><g id="レイヤー_2" data-name="レイヤー 2"><g id="レイヤー_1-2" data-name="レイヤー 1"><rect class="cls-1" x="6.4" y="6.4" width="147.2" height="147.2"/><path class="cls-2" d="M0,155.73H160V0H0V155.73ZM6.4,6.4H153.6V149.33H6.4V6.4Z"/><path class="cls-3" d="M105.6,55.17c0-.55.2-.77.74-.77h10.24a.76.76,0,0,1,.75.76V108c0,.55-.1.76-.74.76H106.46c-.66,0-.86-.31-.86-.86V55.17Zm-1.39-15.35a6.82,6.82,0,1,1,13.63,0c0,4.41-2.86,6.82-6.94,6.82s-6.69-2.41-6.69-6.82m-30.12,37c-1.84-7.29-6.17-23.23-7.8-30.93h-.1c-1.43,7.7-4.9,20.72-7.62,30.93ZM55.83,87.47l-5.17,19.6c-.12.54-.33.66-1,.66H39.9c-.64,0-.74-.2-.64-1L57.92,41.31a20.18,20.18,0,0,0,.66-5.46c0-.45.22-.65.54-.65H72.91c.44,0,.67.1.78.65l20.94,71c.11.55,0,.85-.55.85h-11c-.54,0-.84-.12-1-.54l-5.4-19.72Z"/></g></g></svg>