<svg xmlns="http://www.w3.org/2000/svg" viewBox="0 0 160 160"><defs><style>.cls-1{fill:#fff;}.cls-2{fill:#34393e;}.cls-3{fill:#32373c;}.cls-4{fill:#33383d;}</style></defs><title>アセット 40</title><g id="レイヤー_2" data-name="レイヤー 2"><g id="レイヤー_1-2" data-name="レイヤー 1"><circle class="cls-1" cx="80" cy="80" r="80"/><path class="cls-2" d="M80,160A80,80,0,1,1,160,80,80,80,0,0,1,80,160Zm0-4.8A75.2,75.2,0,1,0,4.8,79.94,75.18,75.18,0,0,0,80,155.2Z"/><path class="cls-3" d="M89.22,48.8c2.59-.25,5-.45,7.44-.71a2.76,2.76,0,1,0-.52-5.49c-4.79.27-9.58.72-14.37.76-5.39,0-10.79-.26-16.19-.45-1.43,0-2.87-.22-4.3-.31a2.73,2.73,0,0,0-3.12,2.59c-.12,1.65.81,2.7,2.63,2.9,2,.22,4,.42,6,.57a1.18,1.18,0,0,1,1.2.89c3.24,9,6.52,17.91,9.77,26.88a2.42,2.42,0,0,1,0,1.48q-7,21-14,42c-.07.22-.16.42-.36.94L39.18,48.8c2.45-.23,4.84-.43,7.22-.69,2-.22,3.05-1.42,2.85-3.11s-1.5-2.48-3.53-2.38c-6.51.31-13,.55-19.53.81-.55,0-1.1,0-1.72-.08,20.18-32.06,68-41.74,100.38-12.64-.79.05-1.48.05-2.16.16A11.82,11.82,0,0,0,113,43.62c.39,4.11,2.32,7.58,4.31,11.05,1.78,3.12,3.67,6.2,5.13,9.46A30.3,30.3,0,0,1,124,84.67c-2.23,8.44-4.87,16.77-7.37,25.14-.94,3.18-2,6.32-3,9.47-.1.3-.22.59-.38,1Z"/><path class="cls-4" d="M102,143a66.76,66.76,0,0,1-40.86,1l20-58.16C88.18,105,95.07,123.89,102,143Z"/><path class="cls-4" d="M50.78,139.7c-16.61-8.29-28.12-21-34-38.59-5.44-16.23-4.48-32.27,2.31-48.28Z"/><path class="cls-4" d="M113.57,137.53c2.07-6,4.05-11.75,6.05-17.5,4.7-13.61,9.36-27.23,14.14-40.81a93.81,93.81,0,0,0,4.32-14.67,53.76,53.76,0,0,0,.5-16.08C154.39,75.79,147.55,117.64,113.57,137.53Z"/></g></g></svg>