<svg xmlns="http://www.w3.org/2000/svg" xmlns:xlink="http://www.w3.org/1999/xlink" viewBox="0 0 153.6 80.8"><defs><style>.cls-1{fill:none;}.cls-2{clip-path:url(#clip-path);}.cls-3{fill:url(#名称未設定グラデーション_24);}.cls-4{clip-path:url(#clip-path-2);}.cls-5{fill:#777bb3;}.cls-6{fill:#fff;}</style><clipPath id="clip-path" transform="translate(-3.25 -4.57)"><path class="cls-1" d="M3.25,45c0,22.31,34.39,40.4,76.8,40.4h0c42.41,0,76.8-18.09,76.8-40.4h0c0-22.32-34.39-40.4-76.8-40.4h0C37.64,4.57,3.25,22.65,3.25,45"/></clipPath><radialGradient id="名称未設定グラデーション_24" cx="-743.2" cy="850.71" r="0.22" gradientTransform="matrix(453.82, 0, 0, -453.82, 337331.84, 386090.28)" gradientUnits="userSpaceOnUse"><stop offset="0" stop-color="#aeb2d5"/><stop offset="0.3" stop-color="#aeb2d5"/><stop offset="0.75" stop-color="#484c89"/><stop offset="1" stop-color="#484c89"/></radialGradient><clipPath id="clip-path-2" transform="translate(-3.25 -4.57)"><rect class="cls-1" width="160" height="90"/></clipPath></defs><title>アセット 36</title><g id="レイヤー_2" data-name="レイヤー 2"><g id="レイヤー_1-2" data-name="レイヤー 1"><g id="g3438"><g id="g3440"><g class="cls-2"><g id="g3442"><g id="g3448"><g id="g3450"><path id="path3462" class="cls-3" d="M3.25,45c0,22.31,34.39,40.4,76.8,40.4h0c42.41,0,76.8-18.09,76.8-40.4h0c0-22.32-34.39-40.4-76.8-40.4h0C37.64,4.57,3.25,22.65,3.25,45" transform="translate(-3.25 -4.57)"/></g></g></g></g></g><g id="g3464"><g class="cls-4"><g id="g3466"><g id="g3472"><path id="path3474" class="cls-5" d="M80.05,82.37c40.76,0,73.8-16.75,73.8-37.4s-33-37.4-73.8-37.4S6.25,24.31,6.25,45s33,37.4,73.8,37.4" transform="translate(-3.25 -4.57)"/></g></g></g></g><g id="g3476"><g class="cls-4"><g id="g3478"><g id="g3484"><path id="path3486" d="M45,49.56c3.37,0,5.88-.62,7.47-1.85s2.65-3.3,3.22-6.23c.53-2.73.33-4.64-.6-5.67s-3-1.59-6.1-1.59H43.57l-3,15.34ZM27.47,68.44a.75.75,0,0,1-.33-.06.84.84,0,0,1-.51-.93L34.52,26.9a.84.84,0,0,1,.82-.68H52.26c5.36,0,9.35,1.46,11.86,4.33s3.3,6.91,2.31,12A18.55,18.55,0,0,1,60.61,53a16.6,16.6,0,0,1-6.21,3.72,28.1,28.1,0,0,1-8.53,1.1H39.05l-1.95,10a.82.82,0,0,1-.81.67Z" transform="translate(-3.25 -4.57)"/></g><g id="g3488"><path id="path3490" class="cls-6" d="M44.3,35.11H49c3.71,0,5,.82,5.44,1.3.72.81.86,2.51.39,4.92C54.26,44,53.29,45.94,51.89,47s-3.75,1.66-6.9,1.66H41.66Zm7.92-9.55H35.32a1.66,1.66,0,0,0-1.63,1.34L25.83,67.35a1.67,1.67,0,0,0,.92,1.83,1.69,1.69,0,0,0,.74.15h8.78A1.66,1.66,0,0,0,37.91,68l1.85-9.54h6.16a28.88,28.88,0,0,0,8.75-1.13,17.45,17.45,0,0,0,6.49-3.88,19.31,19.31,0,0,0,6-10.82c1-5.31.19-9.56-2.49-12.63s-6.84-4.59-12.42-4.59m-12.73,25H45c3.54,0,6.18-.66,7.92-2s2.9-3.56,3.51-6.69.32-5.11-.8-6.34S52.29,33.56,49,33.56h-6L39.64,50.44M52.29,27.17q7.65,0,11.16,4T65.56,42.4A17.63,17.63,0,0,1,60,52.32a15.62,15.62,0,0,1-5.87,3.52,27.05,27.05,0,0,1-8.23,1H38.36L36.29,67.56H27.46l7.86-40.45h16.9" transform="translate(-3.25 -4.57)"/></g><g id="g3492"><path id="path3494" d="M86.65,57.78a1,1,0,0,1-.34-.06.84.84,0,0,1-.5-.94l3.5-18c.33-1.72.25-2.95-.23-3.46-.3-.32-1.18-.86-3.8-.86H78.93L74.53,57.1a.84.84,0,0,1-.82.68H65a1,1,0,0,1-.34-.06.84.84,0,0,1-.5-.94l7.88-40.55a.84.84,0,0,1,.82-.67h8.73a.75.75,0,0,1,.33.06.83.83,0,0,1,.49.92l-1.88,9.68h6.79C92.5,26.22,96,27.13,98,29s2.73,5,1.93,9.08L96.3,56.88a.83.83,0,0,1-.81.68Z" transform="translate(-3.25 -4.57)"/></g><g id="g3496"><path id="path3498" class="cls-6" d="M81.56,14.67H72.87A1.67,1.67,0,0,0,71.23,16L63.37,56.46a1.65,1.65,0,0,0,1.66,2h8.75a1.65,1.65,0,0,0,1.63-1.34l4.23-21.77h5.6c2.59,0,3.14.56,3.16.58.15.17.36,1,0,2.71L85,56.47a1.67,1.67,0,0,0,.92,1.82,1.72,1.72,0,0,0,.74.15h8.88a1.66,1.66,0,0,0,1.64-1.35l3.67-18.87c.86-4.43.12-7.75-2.19-9.88s-5.9-3-11.3-3H81.55l1.71-8.78a1.67,1.67,0,0,0-1.64-2m0,1.78L79.53,27.11h7.78q7.38,0,10.17,2.57T99.16,38L95.49,56.89h-8.9L90.05,39c.4-2,.25-3.42-.43-4.15s-2.15-1.11-4.38-1.11h-7L73.78,56.89H65l7.86-40.45h8.69" transform="translate(-3.25 -4.57)"/></g><g id="g3500"><path id="path3502" d="M113.8,49.56c3.37,0,5.88-.62,7.47-1.85s2.65-3.3,3.22-6.23c.53-2.73.33-4.64-.6-5.67s-3-1.59-6.1-1.59h-5.38l-3,15.34ZM96.31,68.44a.75.75,0,0,1-.33-.06.84.84,0,0,1-.51-.93l7.88-40.55a.84.84,0,0,1,.82-.68H121.1c5.36,0,9.35,1.46,11.86,4.33s3.29,6.91,2.31,12A18.55,18.55,0,0,1,129.45,53a16.6,16.6,0,0,1-6.21,3.72,28.1,28.1,0,0,1-8.53,1.1h-6.83l-1.94,10a.83.83,0,0,1-.81.66Z" transform="translate(-3.25 -4.57)"/></g><g id="g3504"><path id="path3506" class="cls-6" d="M113.13,35.11h4.65c3.72,0,5,.82,5.44,1.3.73.81.87,2.51.4,4.92-.52,2.69-1.5,4.61-2.89,5.68s-3.75,1.66-6.9,1.66H110.5Zm8-9.55h-17a1.65,1.65,0,0,0-1.63,1.34L94.67,67.35a1.67,1.67,0,0,0,.92,1.83,1.69,1.69,0,0,0,.74.15h8.78A1.66,1.66,0,0,0,106.75,68l1.85-9.54h6.16a28.88,28.88,0,0,0,8.75-1.13A17.34,17.34,0,0,0,130,53.43a19.8,19.8,0,0,0,3.92-4.91A20.1,20.1,0,0,0,136,42.61c1-5.31.19-9.56-2.5-12.63s-6.83-4.59-12.41-4.59m-12.69,25h5.39c3.54,0,6.18-.66,7.91-2s2.91-3.56,3.52-6.69.31-5.11-.8-6.34-3.34-1.85-6.68-1.85h-6l-3.28,16.88m12.65-23.27q7.65,0,11.16,4T134.4,42.4a17.63,17.63,0,0,1-5.54,9.92A15.7,15.7,0,0,1,123,55.84a27.05,27.05,0,0,1-8.23,1H107.2l-2.07,10.67H96.3l7.86-40.45h17" transform="translate(-3.25 -4.57)"/></g></g></g></g></g></g></g></svg>