<svg xmlns="http://www.w3.org/2000/svg" viewBox="0 0 160 155.73"><defs><style>.cls-1{fill:#002738;}.cls-2,.cls-3{fill:#00abdc;}.cls-3{fill-rule:evenodd;}</style></defs><title>アセット 34</title><g id="レイヤー_2" data-name="レイヤー 2"><g id="レイヤー_1-2" data-name="レイヤー 1"><rect class="cls-1" x="3.2" y="2.13" width="151.47" height="151.47"/><path class="cls-2" d="M0,155.73H160V0H0V155.73ZM6.4,6.4H153.6V149.33H6.4V6.4Z"/><path class="cls-3" d="M108,63.61c-5.26,0-7,2.65-7,4.82,0,2.42,1.22,4.08,8.24,7.71,10.44,5,13.74,9.86,13.74,17,0,10.65-8.13,16.36-19.11,16.36-5.83,0-10.78-1.2-13.64-2.85-.45-.21-.55-.55-.55-1.1V95.78c0-.65.33-.85.75-.55a24.66,24.66,0,0,0,13.44,4c5.26,0,7.46-2.2,7.46-5.16,0-2.41-1.54-4.51-8.23-8-9.46-4.48-13.4-9.09-13.4-16.77,0-8.58,6.69-15.71,18.33-15.71,5.72,0,9.75.86,11.93,1.85a1.42,1.42,0,0,1,.65,1.32v9.12c0,.55-.3.87-1,.66A24,24,0,0,0,108,63.61M50.13,71.52c1.55.1,2.76.1,5.39.1,7.84,0,15.16-2.76,15.16-13.31,0-8.49-5.26-12.78-14.16-12.78-2.66,0-5.17.12-6.39.22V71.52ZM38.4,36.34c0-.45.92-.75,1.47-.75,4.26-.25,10.53-.35,17.08-.35,18.34,0,25.52,10.1,25.52,23.11,0,16.94-12.22,24.19-27.19,24.19-2.51,0-3.39-.11-5.15-.11V108a.76.76,0,0,1-.75.76H39.16a.76.76,0,0,1-.76-.76V36.34Z"/></g></g></svg>