<svg xmlns="http://www.w3.org/2000/svg" xmlns:xlink="http://www.w3.org/1999/xlink" viewBox="0 0 142.22 160"><defs><style>.cls-1{fill:#2062af;}.cls-2{fill:#3c9cd7;}.cls-3{fill:#fff;}.cls-4{fill:url(#名称未設定グラデーション_2);}.cls-5{fill:url(#名称未設定グラデーション_2-2);}.cls-6{fill:url(#名称未設定グラデーション_4);}.cls-7{opacity:0.05;isolation:isolate;}.cls-8{fill:url(#名称未設定グラデーション_4-2);}</style><linearGradient id="名称未設定グラデーション_2" x1="-1261.63" y1="-1546.81" x2="-1261.63" y2="-1554.19" gradientTransform="translate(5906.63 7262.02) scale(4.64)" gradientUnits="userSpaceOnUse"><stop offset="0.39" stop-color="#d1d3d4" stop-opacity="0"/><stop offset="1" stop-color="#d1d3d4"/></linearGradient><linearGradient id="名称未設定グラデーション_2-2" x1="-1252.4" y1="-1550.49" x2="-1252.4" y2="-1558.17" xlink:href="#名称未設定グラデーション_2"/><linearGradient id="名称未設定グラデーション_4" x1="-1266.07" y1="-1543.51" x2="-1248.33" y2="-1543.51" gradientTransform="translate(5906.63 7262.02) scale(4.64)" gradientUnits="userSpaceOnUse"><stop offset="0" stop-color="#e8e7e5"/><stop offset="1" stop-color="#fff"/></linearGradient><linearGradient id="名称未設定グラデーション_4-2" x1="-1266.9" y1="-1556.28" x2="-1247.63" y2="-1556.28" xlink:href="#名称未設定グラデーション_4"/></defs><title>アセット 32</title><g id="レイヤー_2" data-name="レイヤー 2"><g id="レイヤー_1-2" data-name="レイヤー 1"><path class="cls-1" d="M128.89,144.44,71.11,160,13.33,144.44,0,0H142.22Z"/><path class="cls-2" d="M71.07,11.7V147.59l.14,0L118,135,128.75,11.7Z"/><path class="cls-3" d="M71.06,47.78,29.71,65l1.37,17L71.06,65l42.53-18.19,1.76-17.44L71.06,47.78Z"/><path class="cls-4" d="M29.72,65l1.37,17L71.07,65V47.78Z"/><path class="cls-5" d="M115.37,29.33,71.07,47.78V65L113.6,46.77Z"/><path class="cls-6" d="M29.77,65l1.37,17.09,61.33.2L91.1,105l-20.17,5.68-19.39-4.89-1.18-14.1H32.27l2.36,27.27,36.49,10.79,36.3-10.6L112.13,65Z"/><path class="cls-7" d="M71.07,65H29.63L31,82.06l40.06.13V65Zm0,45.64-.19.06-19.4-4.9L50.3,91.66h-18l2.35,27.24,36.45,10.78Z"/><path class="cls-8" d="M26,29.33h89.43l-1.76,17.46H28.11L26,29.33Z"/><path class="cls-7" d="M71.07,29.33H26l2.16,17.46H71.07V29.33Z"/></g></g></svg>