<svg xmlns="http://www.w3.org/2000/svg" viewBox="0 0 141.08 160"><defs><style>.cls-1{fill:#e44d26;}.cls-2{fill:#f16529;}.cls-3{fill:#ebebeb;}.cls-4{fill:#fff;}</style></defs><title>アセット 31</title><g id="レイヤー_2" data-name="レイヤー 2"><g id="レイヤー_1-2" data-name="レイヤー 1"><path class="cls-1" d="M141.08,0,128.23,144,70.45,160,12.84,144,0,0Z"/><path class="cls-2" d="M70.56,147.8l46.68-12.94,11-123H70.56Z"/><path class="cls-3" d="M45.63,47.11H70.56V29.47H26.26l.42,4.74L31,82.89H70.56V65.16H47.24Zm3.92,44.56H31.83l2.47,27.74,36.18,10,.08,0V111.05l-.08,0-19.67-5.31L49.55,91.67Z"/><path class="cls-4" d="M70.48,82.89H92.23l-2,22.88L70.4,111.08v18.38l36.29-10,.26-3,4.15-46.5.43-4.7h-41V82.89Zm0-35.82v0h42.63l.35-4,.81-8.95.42-4.73H70.48v17.6Z"/></g></g></svg>