<?xml version="1.0" encoding="utf-8"?>
<svg xmlns="http://www.w3.org/2000/svg" viewBox="0 0 83.49 23.52"><defs><style>.cls-1{fill:#fff;}</style></defs><title>アセット 16</title><g id="レイヤー_2" data-name="レイヤー 2"><g id="レイヤー_1-2" data-name="レイヤー 1"><path class="cls-1" d="M0,22.62H3.55V.74H0V.29H18.3V5.82H18a16.55,16.55,0,0,0-.89-2.19A6,6,0,0,0,15.9,2a4.08,4.08,0,0,0-1.6-1A6.71,6.71,0,0,0,12.06.74H6.75v9.88H8.83a7.06,7.06,0,0,0,1.79-.19,2.78,2.78,0,0,0,1.27-.72,4.17,4.17,0,0,0,.89-1.44,16.41,16.41,0,0,0,.72-2.35h.36v10H13.5c-.15-.62-.3-1.21-.46-1.79a5.52,5.52,0,0,0-.67-1.54,3.29,3.29,0,0,0-1.15-1.07,3.94,3.94,0,0,0-1.88-.4H6.75V22.62H12.8a5.34,5.34,0,0,0,2.93-.75,6.8,6.8,0,0,0,1.9-1.79,7.58,7.58,0,0,0,1.09-2.16,12.79,12.79,0,0,0,.45-1.86h.35v7H0Z"/><path class="cls-1" d="M22.11,9.34h2.47V5.22l.48.16a3.25,3.25,0,0,0,.76.06,3,3,0,0,0,.84-.11A2.35,2.35,0,0,0,27.33,5V9.34h4.54v.45H27.33V20.26a5.23,5.23,0,0,0,.17,1.45,2.3,2.3,0,0,0,.47.87,1.47,1.47,0,0,0,.62.4,2.56,2.56,0,0,0,.66.09,2.27,2.27,0,0,0,1.81-.81,4.08,4.08,0,0,0,.88-1.88l.44.16a7.81,7.81,0,0,1-.28.93,3.28,3.28,0,0,1-.6,1,3.1,3.1,0,0,1-1,.77,3.74,3.74,0,0,1-1.6.3,4.71,4.71,0,0,1-3.34-.93A3.5,3.5,0,0,1,24.58,20V9.79H22.11Z"/><path class="cls-1" d="M33.66,16.22a6.3,6.3,0,0,1,.69-2.91,8.1,8.1,0,0,1,4.16-3.84,6.58,6.58,0,0,1,5.22,0,8.1,8.1,0,0,1,4.16,3.84,6.3,6.3,0,0,1,.69,2.91,6.56,6.56,0,0,1-.64,2.84,8.26,8.26,0,0,1-1.68,2.32,8,8,0,0,1-2.39,1.56,6.81,6.81,0,0,1-5.5,0A8,8,0,0,1,36,21.38a8.26,8.26,0,0,1-1.68-2.32A6.56,6.56,0,0,1,33.66,16.22Zm3.2,0a14.53,14.53,0,0,0,.36,3.62,5.5,5.5,0,0,0,.92,2.06,2.74,2.74,0,0,0,1.35,1,6.15,6.15,0,0,0,3.26,0,2.74,2.74,0,0,0,1.35-1A5.5,5.5,0,0,0,45,19.84a14.53,14.53,0,0,0,.36-3.62A16.89,16.89,0,0,0,45.12,13a6,6,0,0,0-.78-2.11A3,3,0,0,0,43,9.73a4.62,4.62,0,0,0-1.89-.35,4.56,4.56,0,0,0-1.89.35A3,3,0,0,0,37.9,10.9,6,6,0,0,0,37.12,13,16.89,16.89,0,0,0,36.86,16.22Z"/><path class="cls-1" d="M50.91,22.62h2.47V9.79H50.91V9.34h5.22V22.62h2.46v.45H50.91ZM53,1.89a1.64,1.64,0,0,1,.5-1.2,1.69,1.69,0,0,1,2.4,0,1.63,1.63,0,0,1,.49,1.2,1.63,1.63,0,0,1-.49,1.2,1.71,1.71,0,0,1-2.4,0A1.64,1.64,0,0,1,53,1.89Z"/><path class="cls-1" d="M60.38,22.62h2.47V.45H60.38V0H65.6V22.62h2.46v.45H60.38Z"/><path class="cls-1" d="M73.63,15.14c0,.21,0,.43,0,.65s0,.51,0,.85a19.06,19.06,0,0,0,.13,2.21,6.44,6.44,0,0,0,.56,2.08,3.79,3.79,0,0,0,1.28,1.53,3.73,3.73,0,0,0,2.25.61,5.71,5.71,0,0,0,2.32-.41,4.34,4.34,0,0,0,1.44-1,4.59,4.59,0,0,0,.79-1.2c.17-.41.3-.74.38-1l.48.09a8.57,8.57,0,0,1-.37,1A4.68,4.68,0,0,1,82,21.87,5.27,5.27,0,0,1,80.4,23a5.92,5.92,0,0,1-2.61.5,8.36,8.36,0,0,1-3-.51,6.69,6.69,0,0,1-2.35-1.47,6.85,6.85,0,0,1-1.54-2.29,7.8,7.8,0,0,1-.54-3A7.07,7.07,0,0,1,71,13.55,7.54,7.54,0,0,1,72.5,11.2a7.84,7.84,0,0,1,2.28-1.65,6.6,6.6,0,0,1,2.82-.62,6.22,6.22,0,0,1,1.92.32,5.59,5.59,0,0,1,3.37,2.94,6.48,6.48,0,0,1,.6,3Zm6.59-.45a5.07,5.07,0,0,0,.07-.83v-.8a6.44,6.44,0,0,0-.21-1.8,2.89,2.89,0,0,0-.58-1.12,2.08,2.08,0,0,0-.89-.59,3.53,3.53,0,0,0-1.14-.17,3.37,3.37,0,0,0-1.79.43A3.22,3.22,0,0,0,74.56,11a5.93,5.93,0,0,0-.63,1.69,15.64,15.64,0,0,0-.27,2Z"/></g></g></svg>