<?xml version="1.0" encoding="utf-8"?>
<svg xmlns="http://www.w3.org/2000/svg" viewBox="0 0 175.89 53.64"><defs><style>.cls-1{fill:#fff;}</style></defs><title>アセット 42</title><g id="レイヤー_2" data-name="レイヤー 2"><g id="レイヤー_1-2" data-name="レイヤー 1"><path class="cls-1" d="M0,26.86A25.08,25.08,0,0,1,2.27,16.2,29.63,29.63,0,0,1,8.1,7.7a27.28,27.28,0,0,1,8-5.65,21.16,21.16,0,0,1,8.93-2,22.06,22.06,0,0,1,9.25,2.05,26.77,26.77,0,0,1,8,5.65A28,28,0,0,1,48,16.2a26.59,26.59,0,0,1,2.12,10.66,26.28,26.28,0,0,1-1.94,9.86,28.82,28.82,0,0,1-5.33,8.57,27.23,27.23,0,0,1-8,6.05,21.59,21.59,0,0,1-9.82,2.3,22.63,22.63,0,0,1-10-2.23,25.77,25.77,0,0,1-8-5.94A27.35,27.35,0,0,1,1.87,36.9,27.67,27.67,0,0,1,0,26.86Zm8.28,0a65.48,65.48,0,0,0,.86,11.3A22.88,22.88,0,0,0,12,46.22a12.84,12.84,0,0,0,5.19,4.83,17.51,17.51,0,0,0,7.85,1.58,17.59,17.59,0,0,0,7.81-1.58,12.85,12.85,0,0,0,5.22-4.83A22.88,22.88,0,0,0,41,38.16a65.48,65.48,0,0,0,.86-11.3,68.35,68.35,0,0,0-.65-9.62A26.47,26.47,0,0,0,38.7,9a14.78,14.78,0,0,0-5.11-5.79A15.26,15.26,0,0,0,25.06,1a15.27,15.27,0,0,0-8.54,2.16A14.86,14.86,0,0,0,11.41,9a26.47,26.47,0,0,0-2.48,8.28A69.89,69.89,0,0,0,8.28,26.86Z"/><path class="cls-1" d="M78.41.65H90.14v50.9h5.55v1H84.09V46.3H84a20,20,0,0,1-.86,2.08,8.9,8.9,0,0,1-1.7,2.38,9.88,9.88,0,0,1-2.8,2,9.4,9.4,0,0,1-4.14.83,13.75,13.75,0,0,1-6-1.37,16.88,16.88,0,0,1-5-3.67A17.82,17.82,0,0,1,60,43.24a16.37,16.37,0,0,1,0-12.5,16.65,16.65,0,0,1,8.14-8.67,13.11,13.11,0,0,1,5.83-1.33,10,10,0,0,1,6.41,1.94,10.64,10.64,0,0,1,3.46,4.75H84V1.66H78.41ZM66,36.07q0,3.75.22,6.81a17.17,17.17,0,0,0,1.08,5.22,6.93,6.93,0,0,0,2.59,3.31,8.31,8.31,0,0,0,4.68,1.15,8.2,8.2,0,0,0,4.86-1.3,8.76,8.76,0,0,0,2.84-3.34,15.29,15.29,0,0,0,1.37-4.58A34.57,34.57,0,0,0,84,38.45c0-1.87,0-3.49-.11-4.86A29.24,29.24,0,0,0,83.45,30a13.09,13.09,0,0,0-.79-2.73,12.07,12.07,0,0,0-1.23-2.16,8.51,8.51,0,0,0-2.81-2.38,9.18,9.18,0,0,0-4.39-.94,7.74,7.74,0,0,0-4.14,1,6.7,6.7,0,0,0-2.52,2.88,15.15,15.15,0,0,0-1.26,4.5A44.06,44.06,0,0,0,66,36.07Z"/><path class="cls-1" d="M108.21,34.7c0,.48,0,1,0,1.48s0,1.14,0,1.91a45.67,45.67,0,0,0,.29,5,14.93,14.93,0,0,0,1.26,4.68,8.74,8.74,0,0,0,2.88,3.45,8.54,8.54,0,0,0,5.08,1.37,12.53,12.53,0,0,0,5.22-.94,9.81,9.81,0,0,0,3.24-2.26,10.05,10.05,0,0,0,1.76-2.7c.38-.92.67-1.66.86-2.24l1.08.22a21.44,21.44,0,0,1-.82,2.27,10.45,10.45,0,0,1-2,3,11.83,11.83,0,0,1-3.6,2.59,13.24,13.24,0,0,1-5.87,1.12,18.93,18.93,0,0,1-6.66-1.15,15.28,15.28,0,0,1-5.29-3.32A14.83,14.83,0,0,1,102.17,44a17.4,17.4,0,0,1-1.23-6.66,15.68,15.68,0,0,1,1.26-6.16,17.37,17.37,0,0,1,8.6-9,14.31,14.31,0,0,1,10.66-.68,12.8,12.8,0,0,1,4.29,2.34,13,13,0,0,1,3.31,4.28,14.84,14.84,0,0,1,1.33,6.62Zm14.83-1a12.92,12.92,0,0,0,.15-1.88V30a14.6,14.6,0,0,0-.47-4,6.51,6.51,0,0,0-1.3-2.52,4.56,4.56,0,0,0-2-1.33,8.17,8.17,0,0,0-2.56-.4,7.59,7.59,0,0,0-4,1,7,7,0,0,0-2.52,2.62,13.69,13.69,0,0,0-1.4,3.82,28.25,28.25,0,0,0-.61,4.54Z"/><path class="cls-1" d="M135.5,51.55H141V22.68H135.5v-1h11.59v7.71h.15c.29-.63.7-1.42,1.26-2.38a12.19,12.19,0,0,1,2.27-2.81,12.32,12.32,0,0,1,8.85-3.31,12.35,12.35,0,0,1,7.74,2.3q3,2.31,3,7.35v21h5.54v1H158.61v-1h5.55V28.3a7.59,7.59,0,0,0-1.33-4.61,4.82,4.82,0,0,0-4.14-1.8,9.89,9.89,0,0,0-4.4,1,11.54,11.54,0,0,0-3.67,2.8A13.25,13.25,0,0,0,148.14,30a15.33,15.33,0,0,0-.9,5.33V51.55h5.54v1H135.5Z"/></g></g></svg>